<?xml version="1.0" encoding="utf-8"?>
<!-- Generator: Adobe Illustrator 24.2.1, SVG Export Plug-In . SVG Version: 6.00 Build 0)  -->
<svg version="1.1" id="Calque_1" xmlns="http://www.w3.org/2000/svg" xmlns:xlink="http://www.w3.org/1999/xlink" x="0px" y="0px"
	 viewBox="0 0 600 600" style="enable-background:new 0 0 600 600;" xml:space="preserve">
<style type="text/css">
	.st0{fill:#231F20;}
	.st1{fill:none;stroke:#231F20;stroke-width:0.5;stroke-miterlimit:10;}
	.st2{fill:none;stroke:#231F20;stroke-miterlimit:10;}
</style>
<g id="Ñëîé_3">
	<g>
		<path class="st0" d="M0,585v15h1.3c0-5.1,0-10.1,0-15.2C0.8,584.9,0.4,585,0,585z"/>
		<path class="st0" d="M1.3,494.8C0.8,494.9,0.4,495,0,495v30c0.2-2,0.6-4.1,1.3-6.1C1.3,510.9,1.3,502.9,1.3,494.8z"/>
		<path class="st0" d="M1.3,434.8C0.8,434.9,0.4,435,0,435v30c0.2-2,0.6-4.1,1.3-6.1C1.3,450.9,1.3,442.9,1.3,434.8z"/>
		<path class="st0" d="M1.3,314.8C0.8,314.9,0.4,315,0,315v30c0.2-2,0.6-4.1,1.3-6.1C1.3,330.9,1.3,322.9,1.3,314.8z"/>
		<path class="st0" d="M1.3,104.8c-0.4,0.1-0.8,0.1-1.3,0.2v30c0.2-2.1,0.6-4.1,1.3-6.1C1.3,120.9,1.3,112.9,1.3,104.8z"/>
		<path class="st0" d="M1.3,164.8c-0.4,0.1-0.8,0.1-1.3,0.2v30c0.2-2.1,0.6-4.1,1.3-6.1C1.3,180.9,1.3,172.9,1.3,164.8z"/>
		<path class="st0" d="M1.3,194.8c-0.4,0.1-0.8,0.1-1.3,0.2v30c0.2-2.1,0.6-4.1,1.3-6.1C1.3,210.9,1.3,202.9,1.3,194.8z"/>
		<path class="st0" d="M1.3,284.8C0.8,284.9,0.4,285,0,285v30c0.2-2,0.6-4.1,1.3-6.1C1.3,300.9,1.3,292.9,1.3,284.8z"/>
		<path class="st0" d="M1.3,464.8C0.8,464.9,0.4,465,0,465v30c0.2-2,0.6-4.1,1.3-6.1C1.3,480.9,1.3,472.9,1.3,464.8z"/>
		<path class="st0" d="M1.3,224.8c-0.4,0.1-0.8,0.1-1.3,0.2v30c0.2-2.1,0.6-4.1,1.3-6.1C1.3,240.9,1.3,232.9,1.3,224.8z"/>
		<path class="st0" d="M1.3,134.8c-0.4,0.1-0.8,0.1-1.3,0.2v30c0.2-2.1,0.6-4.1,1.3-6.1C1.3,150.9,1.3,142.9,1.3,134.8z"/>
		<path class="st0" d="M0,15c0.2-2.1,0.6-4.1,1.3-6.1c0-3,0-5.9,0-8.9H0V15z"/>
		<path class="st0" d="M1.3,44.8C0.8,44.9,0.4,44.9,0,45v30c0.2-2.1,0.6-4.1,1.3-6.1C1.3,60.9,1.3,52.9,1.3,44.8z"/>
		<path class="st0" d="M1.3,374.8C0.8,374.9,0.4,375,0,375v30c0.2-2,0.6-4.1,1.3-6.1C1.3,390.9,1.3,382.9,1.3,374.8z"/>
		<path class="st0" d="M1.3,404.8C0.8,404.9,0.4,405,0,405v30c0.2-2,0.6-4.1,1.3-6.1C1.3,420.9,1.3,412.9,1.3,404.8z"/>
		<path class="st0" d="M1.3,365.3c0-6.8,0-13.6,0-20.4C0.8,344.9,0.4,345,0,345v30c0.2-2,0.6-4.1,1.3-6.1
			C1.3,367.7,1.3,366.5,1.3,365.3z"/>
		<path class="st0" d="M1.3,554.8C0.8,554.9,0.4,555,0,555v30c0.2-2,0.6-4.1,1.3-6.1C1.3,570.9,1.3,562.9,1.3,554.8z"/>
		<path class="st0" d="M1.3,524.8C0.8,524.9,0.4,525,0,525v30c0.2-2,0.6-4.1,1.3-6.1C1.3,540.9,1.3,532.9,1.3,524.8z"/>
		<path class="st0" d="M1.3,14.8C0.8,14.9,0.4,14.9,0,15v30c0.2-2,0.6-4.1,1.3-6.1C1.3,30.9,1.3,22.9,1.3,14.8z"/>
		<path class="st0" d="M1.3,74.8C0.8,74.9,0.4,74.9,0,75v30c0.2-2.1,0.6-4.1,1.3-6.1C1.3,90.9,1.3,82.9,1.3,74.8z"/>
		<path class="st0" d="M1.3,254.8c-0.4,0.1-0.8,0.1-1.3,0.2v30c0.2-2,0.6-4.1,1.3-6.1C1.3,270.9,1.3,262.9,1.3,254.8z"/>
		<path class="st0" d="M76.3,458.9c0-8,0-16.1,0-24.1c-0.4,0.1-0.8,0.1-1.3,0.2c-0.4,0-0.8-0.1-1.3-0.2c0,8,0,16.1,0,24.1
			c0.6,2,1,4,1.3,6.1C75.2,463,75.7,460.9,76.3,458.9z"/>
		<path class="st0" d="M76.3,488.9c0-8,0-16.1,0-24.1c-0.4,0.1-0.8,0.1-1.3,0.2c-0.4,0-0.8-0.1-1.3-0.2c0,1.1,0,2.3,0,3.4
			c0,6.9,0,13.8,0,20.7c0.6,2,1,4,1.3,6.1C75.2,493,75.7,490.9,76.3,488.9z"/>
		<path class="st0" d="M76.3,248.9c0-8,0-16.1,0-24.1c-0.4,0.1-0.8,0.1-1.3,0.2c-0.4-0.1-0.8-0.1-1.3-0.2c0,3.3,0,6.6,0,9.9
			c0,4.7,0,9.5,0,14.2c0.6,2,1,4,1.3,6.1C75.2,252.9,75.7,250.9,76.3,248.9z"/>
		<path class="st0" d="M76.3,278.9c0-8,0-16.1,0-24.1c-0.4,0.1-0.8,0.1-1.3,0.2c-0.4-0.1-0.8-0.1-1.3-0.2c0,8,0,16.1,0,24.1
			c0.6,2,1,4,1.3,6.1C75.2,283,75.7,280.9,76.3,278.9z"/>
		<path class="st0" d="M76.3,518.9c0-8,0-16.1,0-24.1c-0.4,0.1-0.8,0.1-1.3,0.2c-0.4,0-0.8-0.1-1.3-0.2c0,8,0,16.1,0,24.1
			c0.6,2,1,4,1.3,6.1C75.2,523,75.7,520.9,76.3,518.9z"/>
		<path class="st0" d="M76.3,398.9c0-8,0-16.1,0-24.1c-0.4,0.1-0.8,0.1-1.3,0.2c-0.4,0-0.8-0.1-1.3-0.2c0,8,0,16.1,0,24.1
			c0.6,2,1,4,1.3,6.1C75.2,403,75.7,400.9,76.3,398.9z"/>
		<path class="st0" d="M76.3,338.9c0-8,0-16.1,0-24.1c-0.4,0.1-0.8,0.1-1.3,0.2c-0.4,0-0.8-0.1-1.3-0.2c0,8,0,16.1,0,24.1
			c0.6,2,1,4,1.3,6.1C75.2,343,75.7,340.9,76.3,338.9z"/>
		<path class="st0" d="M76.3,428.9c0-8,0-16.1,0-24.1c-0.4,0.1-0.8,0.1-1.3,0.2c-0.4,0-0.8-0.1-1.3-0.2c0,8,0,16.1,0,24.1
			c0.6,2,1,4,1.3,6.1C75.2,433,75.7,430.9,76.3,428.9z"/>
		<path class="st0" d="M76.3,308.9c0-8,0-16.1,0-24.1c-0.4,0.1-0.8,0.1-1.3,0.2c-0.4,0-0.8-0.1-1.3-0.2c0,8,0,16.1,0,24.1
			c0.6,2,1,4,1.3,6.1C75.2,313,75.7,310.9,76.3,308.9z"/>
		<path class="st0" d="M76.3,38.9c0-8,0-16.1,0-24.1c-0.4,0.1-0.8,0.1-1.3,0.2c-0.4-0.1-0.8-0.1-1.3-0.2c0,8,0,16.1,0,24.1
			c0.6,2,1,4,1.3,6.1C75.2,42.9,75.7,40.9,76.3,38.9z"/>
		<path class="st0" d="M76.3,98.9c0-8,0-16.1,0-24.1c-0.4,0.1-0.8,0.1-1.3,0.2c-0.4-0.1-0.8-0.1-1.3-0.2c0,8,0,16.1,0,24.1
			c0.6,2,1,4,1.3,6.1C75.2,102.9,75.7,100.9,76.3,98.9z"/>
		<path class="st0" d="M76.3,158.9c0-8,0-16.1,0-24.1c-0.4,0.1-0.8,0.1-1.3,0.2c-0.4-0.1-0.8-0.1-1.3-0.2c0,8,0,16.1,0,24.1
			c0.6,2,1,4,1.3,6.1C75.2,162.9,75.7,160.9,76.3,158.9z"/>
		<path class="st0" d="M76.3,368.9c0-1.2,0-2.4,0-3.6c0-6.8,0-13.6,0-20.4c-0.4,0.1-0.8,0.1-1.3,0.2c-0.4,0-0.8-0.1-1.3-0.2
			c0,8,0,16.1,0,24.1c0.6,2,1,4,1.3,6.1C75.2,373,75.7,370.9,76.3,368.9z"/>
		<path class="st0" d="M76.3,128.9c0-8,0-16.1,0-24.1c-0.4,0.1-0.8,0.1-1.3,0.2c-0.4-0.1-0.8-0.1-1.3-0.2c0,8,0,16.1,0,24.1
			c0.6,2,1,4,1.3,6.1C75.2,132.9,75.7,130.9,76.3,128.9z"/>
		<path class="st0" d="M76.3,68.9c0-8,0-16.1,0-24.1c-0.4,0.1-0.8,0.1-1.3,0.2c-0.4,0-0.8-0.1-1.3-0.2c0,8,0,16.1,0,24.1
			c0.6,2,1,4,1.3,6.1C75.2,72.9,75.7,70.9,76.3,68.9z"/>
		<path class="st0" d="M76.3,548.9c0-8,0-16.1,0-24.1c-0.4,0.1-0.8,0.1-1.3,0.2c-0.4,0-0.8-0.1-1.3-0.2c0,8,0,16.1,0,24.1
			c0.6,2,1,4,1.3,6.1C75.2,553,75.7,550.9,76.3,548.9z"/>
		<path class="st0" d="M76.3,218.9c0-8,0-16.1,0-24.1c-0.4,0.1-0.8,0.1-1.3,0.2c-0.4-0.1-0.8-0.1-1.3-0.2c0,8,0,16.1,0,24.1
			c0.6,2,1,4,1.3,6.1C75.2,222.9,75.7,220.9,76.3,218.9z"/>
		<path class="st0" d="M76.3,188.9c0-8,0-16.1,0-24.1c-0.4,0.1-0.8,0.1-1.3,0.2c-0.4-0.1-0.8-0.1-1.3-0.2c0,8,0,16.1,0,24.1
			c0.6,2,1,4,1.3,6.1C75.2,192.9,75.7,190.9,76.3,188.9z"/>
		<path class="st0" d="M75,585c-0.4,0-0.8-0.1-1.3-0.2c0,5,0,10.1,0,15.2h2.5c0-5.1,0-10.1,0-15.2C75.8,584.9,75.4,585,75,585z"/>
		<path class="st0" d="M76.3,578.9c0-8,0-16.1,0-24.1c-0.4,0.1-0.8,0.1-1.3,0.2c-0.4,0-0.8-0.1-1.3-0.2c0,8,0,16.1,0,24.1
			c0.6,2,1,4,1.3,6.1C75.2,583,75.7,580.9,76.3,578.9z"/>
		<path class="st0" d="M75,15c0.2-2.1,0.7-4.1,1.3-6.1c0-3,0-5.9,0-8.9h-2.5c0,3,0,5.9,0,8.9C74.3,10.9,74.8,12.9,75,15z"/>
		<path class="st0" d="M151.3,188.9c0-8,0-16.1,0-24.1c-0.4,0.1-0.8,0.1-1.3,0.2c-0.4-0.1-0.8-0.1-1.3-0.2c0,8,0,16.1,0,24.1
			c0.6,2,1,4,1.3,6.1C150.2,192.9,150.6,190.9,151.3,188.9z"/>
		<path class="st0" d="M151.3,218.9c0-8,0-16.1,0-24.1c-0.4,0.1-0.8,0.1-1.3,0.2c-0.4-0.1-0.8-0.1-1.3-0.2c0,8,0,16.1,0,24.1
			c0.6,2,1,4,1.3,6.1C150.2,222.9,150.6,220.9,151.3,218.9z"/>
		<path class="st0" d="M151.3,248.9c0-8,0-16.1,0-24.1c-0.4,0.1-0.8,0.1-1.3,0.2c-0.4-0.1-0.8-0.1-1.3-0.2c0,3.3,0,6.6,0,9.9
			c0,4.7,0,9.5,0,14.2c0.6,2,1,4,1.3,6.1C150.2,252.9,150.6,250.9,151.3,248.9z"/>
		<path class="st0" d="M151.3,278.9c0-8,0-16.1,0-24.1c-0.4,0.1-0.8,0.1-1.3,0.2c-0.4-0.1-0.8-0.1-1.3-0.2c0,8,0,16.1,0,24.1
			c0.6,2,1,4,1.3,6.1C150.2,283,150.6,280.9,151.3,278.9z"/>
		<path class="st0" d="M151.3,38.9c0-8,0-16.1,0-24.1c-0.4,0.1-0.8,0.1-1.3,0.2c-0.4-0.1-0.8-0.1-1.3-0.2c0,8,0,16.1,0,24.1
			c0.6,2,1,4,1.3,6.1C150.2,42.9,150.6,40.9,151.3,38.9z"/>
		<path class="st0" d="M150,15c0.2-2.1,0.6-4.1,1.3-6.1c0-3,0-5.9,0-8.9h-2.5c0,3,0,5.9,0,8.9C149.4,10.9,149.8,12.9,150,15z"/>
		<path class="st0" d="M151.3,308.9c0-8,0-16.1,0-24.1c-0.4,0.1-0.8,0.1-1.3,0.2c-0.4,0-0.8-0.1-1.3-0.2c0,8,0,16.1,0,24.1
			c0.6,2,1,4,1.3,6.1C150.2,313,150.6,310.9,151.3,308.9z"/>
		<path class="st0" d="M151.3,98.9c0-8,0-16.1,0-24.1c-0.4,0.1-0.8,0.1-1.3,0.2c-0.4-0.1-0.8-0.1-1.3-0.2c0,8,0,16.1,0,24.1
			c0.6,2,1,4,1.3,6.1C150.2,102.9,150.6,100.9,151.3,98.9z"/>
		<path class="st0" d="M151.3,68.9c0-8,0-16.1,0-24.1c-0.4,0.1-0.8,0.1-1.3,0.2c-0.4,0-0.8-0.1-1.3-0.2c0,8,0,16.1,0,24.1
			c0.6,2,1,4,1.3,6.1C150.2,72.9,150.6,70.9,151.3,68.9z"/>
		<path class="st0" d="M151.3,158.9c0-8,0-16.1,0-24.1c-0.4,0.1-0.8,0.1-1.3,0.2c-0.4-0.1-0.8-0.1-1.3-0.2c0,8,0,16.1,0,24.1
			c0.6,2,1,4,1.3,6.1C150.2,162.9,150.6,160.9,151.3,158.9z"/>
		<path class="st0" d="M151.3,128.9c0-8,0-16.1,0-24.1c-0.4,0.1-0.8,0.1-1.3,0.2c-0.4-0.1-0.8-0.1-1.3-0.2c0,8,0,16.1,0,24.1
			c0.6,2,1,4,1.3,6.1C150.2,132.9,150.6,130.9,151.3,128.9z"/>
		<path class="st0" d="M151.3,458.9c0-8,0-16.1,0-24.1c-0.4,0.1-0.8,0.1-1.3,0.2c-0.4,0-0.8-0.1-1.3-0.2c0,8,0,16.1,0,24.1
			c0.6,2,1,4,1.3,6.1C150.2,463,150.6,460.9,151.3,458.9z"/>
		<path class="st0" d="M151.3,518.9c0-8,0-16.1,0-24.1c-0.4,0.1-0.8,0.1-1.3,0.2c-0.4,0-0.8-0.1-1.3-0.2c0,8,0,16.1,0,24.1
			c0.6,2,1,4,1.3,6.1C150.2,523,150.6,520.9,151.3,518.9z"/>
		<path class="st0" d="M151.3,488.9c0-8,0-16.1,0-24.1c-0.4,0.1-0.8,0.1-1.3,0.2c-0.4,0-0.8-0.1-1.3-0.2c0,1.1,0,2.3,0,3.4
			c0,6.9,0,13.8,0,20.7c0.6,2,1,4,1.3,6.1C150.2,493,150.6,490.9,151.3,488.9z"/>
		<path class="st0" d="M151.3,578.9c0-8,0-16.1,0-24.1c-0.4,0.1-0.8,0.1-1.3,0.2c-0.4,0-0.8-0.1-1.3-0.2c0,8,0,16.1,0,24.1
			c0.6,2,1,4,1.3,6.1C150.2,583,150.6,580.9,151.3,578.9z"/>
		<path class="st0" d="M150,585c-0.4,0-0.8-0.1-1.3-0.2c0,5,0,10.1,0,15.2h2.5c0-5.1,0-10.1,0-15.2C150.8,584.9,150.4,585,150,585z"
			/>
		<path class="st0" d="M151.3,548.9c0-8,0-16.1,0-24.1c-0.4,0.1-0.8,0.1-1.3,0.2c-0.4,0-0.8-0.1-1.3-0.2c0,8,0,16.1,0,24.1
			c0.6,2,1,4,1.3,6.1C150.2,553,150.6,550.9,151.3,548.9z"/>
		<path class="st0" d="M151.3,428.9c0-8,0-16.1,0-24.1c-0.4,0.1-0.8,0.1-1.3,0.2c-0.4,0-0.8-0.1-1.3-0.2c0,8,0,16.1,0,24.1
			c0.6,2,1,4,1.3,6.1C150.2,433,150.6,430.9,151.3,428.9z"/>
		<path class="st0" d="M151.3,368.9c0-1.2,0-2.4,0-3.6c0-6.8,0-13.6,0-20.4c-0.4,0.1-0.8,0.1-1.3,0.2c-0.4,0-0.8-0.1-1.3-0.2
			c0,8,0,16.1,0,24.1c0.6,2,1,4,1.3,6.1C150.2,373,150.6,370.9,151.3,368.9z"/>
		<path class="st0" d="M151.3,338.9c0-8,0-16.1,0-24.1c-0.4,0.1-0.8,0.1-1.3,0.2c-0.4,0-0.8-0.1-1.3-0.2c0,8,0,16.1,0,24.1
			c0.6,2,1,4,1.3,6.1C150.2,343,150.6,340.9,151.3,338.9z"/>
		<path class="st0" d="M151.3,398.9c0-8,0-16.1,0-24.1c-0.4,0.1-0.8,0.1-1.3,0.2c-0.4,0-0.8-0.1-1.3-0.2c0,8,0,16.1,0,24.1
			c0.6,2,1,4,1.3,6.1C150.2,403,150.6,400.9,151.3,398.9z"/>
		<path class="st0" d="M226.3,248.9c0-8,0-16.1,0-24.1c-0.4,0.1-0.8,0.1-1.3,0.2c-0.4-0.1-0.8-0.1-1.3-0.2c0,3.3,0,6.6,0,9.9
			c0,4.7,0,9.5,0,14.2c0.6,2,1,4,1.3,6.1C225.2,252.9,225.6,250.9,226.3,248.9z"/>
		<path class="st0" d="M225,585c-0.4,0-0.8-0.1-1.3-0.2c0,5,0,10.1,0,15.2h2.5c0-5.1,0-10.1,0-15.2C225.8,584.9,225.4,585,225,585z"
			/>
		<path class="st0" d="M225,15c0.2-2.1,0.6-4.1,1.3-6.1c0-3,0-5.9,0-8.9h-2.5c0,3,0,5.9,0,8.9C224.4,10.9,224.8,12.9,225,15z"/>
		<path class="st0" d="M226.3,578.9c0-8,0-16.1,0-24.1c-0.4,0.1-0.8,0.1-1.3,0.2c-0.4,0-0.8-0.1-1.3-0.2c0,8,0,16.1,0,24.1
			c0.6,2,1,4,1.3,6.1C225.2,583,225.6,580.9,226.3,578.9z"/>
		<path class="st0" d="M226.3,548.9c0-8,0-16.1,0-24.1c-0.4,0.1-0.8,0.1-1.3,0.2c-0.4,0-0.8-0.1-1.3-0.2c0,8,0,16.1,0,24.1
			c0.6,2,1,4,1.3,6.1C225.2,553,225.6,550.9,226.3,548.9z"/>
		<path class="st0" d="M226.3,218.9c0-8,0-16.1,0-24.1c-0.4,0.1-0.8,0.1-1.3,0.2c-0.4-0.1-0.8-0.1-1.3-0.2c0,8,0,16.1,0,24.1
			c0.6,2,1,4,1.3,6.1C225.2,222.9,225.6,220.9,226.3,218.9z"/>
		<path class="st0" d="M226.3,488.9c0-8,0-16.1,0-24.1c-0.4,0.1-0.8,0.1-1.3,0.2c-0.4,0-0.8-0.1-1.3-0.2c0,1.1,0,2.3,0,3.4
			c0,6.9,0,13.8,0,20.7c0.6,2,1,4,1.3,6.1C225.2,493,225.6,490.9,226.3,488.9z"/>
		<path class="st0" d="M226.3,398.9c0-8,0-16.1,0-24.1c-0.4,0.1-0.8,0.1-1.3,0.2c-0.4,0-0.8-0.1-1.3-0.2c0,8,0,16.1,0,24.1
			c0.6,2,1,4,1.3,6.1C225.2,403,225.6,400.9,226.3,398.9z"/>
		<path class="st0" d="M226.3,368.9c0-1.2,0-2.4,0-3.6c0-6.8,0-13.6,0-20.4c-0.4,0.1-0.8,0.1-1.3,0.2c-0.4,0-0.8-0.1-1.3-0.2
			c0,8,0,16.1,0,24.1c0.6,2,1,4,1.3,6.1C225.2,373,225.6,370.9,226.3,368.9z"/>
		<path class="st0" d="M226.3,338.9c0-8,0-16.1,0-24.1c-0.4,0.1-0.8,0.1-1.3,0.2c-0.4,0-0.8-0.1-1.3-0.2c0,8,0,16.1,0,24.1
			c0.6,2,1,4,1.3,6.1C225.2,343,225.6,340.9,226.3,338.9z"/>
		<path class="st0" d="M226.3,308.9c0-8,0-16.1,0-24.1c-0.4,0.1-0.8,0.1-1.3,0.2c-0.4,0-0.8-0.1-1.3-0.2c0,8,0,16.1,0,24.1
			c0.6,2,1,4,1.3,6.1C225.2,313,225.6,310.9,226.3,308.9z"/>
		<path class="st0" d="M226.3,458.9c0-8,0-16.1,0-24.1c-0.4,0.1-0.8,0.1-1.3,0.2c-0.4,0-0.8-0.1-1.3-0.2c0,8,0,16.1,0,24.1
			c0.6,2,1,4,1.3,6.1C225.2,463,225.6,460.9,226.3,458.9z"/>
		<path class="st0" d="M226.3,428.9c0-8,0-16.1,0-24.1c-0.4,0.1-0.8,0.1-1.3,0.2c-0.4,0-0.8-0.1-1.3-0.2c0,8,0,16.1,0,24.1
			c0.6,2,1,4,1.3,6.1C225.2,433,225.6,430.9,226.3,428.9z"/>
		<path class="st0" d="M226.3,278.9c0-8,0-16.1,0-24.1c-0.4,0.1-0.8,0.1-1.3,0.2c-0.4-0.1-0.8-0.1-1.3-0.2c0,8,0,16.1,0,24.1
			c0.6,2,1,4,1.3,6.1C225.2,283,225.6,280.9,226.3,278.9z"/>
		<path class="st0" d="M226.3,98.9c0-8,0-16.1,0-24.1c-0.4,0.1-0.8,0.1-1.3,0.2c-0.4-0.1-0.8-0.1-1.3-0.2c0,8,0,16.1,0,24.1
			c0.6,2,1,4,1.3,6.1C225.2,102.9,225.6,100.9,226.3,98.9z"/>
		<path class="st0" d="M226.3,68.9c0-8,0-16.1,0-24.1c-0.4,0.1-0.8,0.1-1.3,0.2c-0.4,0-0.8-0.1-1.3-0.2c0,8,0,16.1,0,24.1
			c0.6,2,1,4,1.3,6.1C225.2,72.9,225.6,70.9,226.3,68.9z"/>
		<path class="st0" d="M226.3,158.9c0-8,0-16.1,0-24.1c-0.4,0.1-0.8,0.1-1.3,0.2c-0.4-0.1-0.8-0.1-1.3-0.2c0,8,0,16.1,0,24.1
			c0.6,2,1,4,1.3,6.1C225.2,162.9,225.6,160.9,226.3,158.9z"/>
		<path class="st0" d="M226.3,38.9c0-8,0-16.1,0-24.1c-0.4,0.1-0.8,0.1-1.3,0.2c-0.4-0.1-0.8-0.1-1.3-0.2c0,8,0,16.1,0,24.1
			c0.6,2,1,4,1.3,6.1C225.2,42.9,225.6,40.9,226.3,38.9z"/>
		<path class="st0" d="M226.3,188.9c0-8,0-16.1,0-24.1c-0.4,0.1-0.8,0.1-1.3,0.2c-0.4-0.1-0.8-0.1-1.3-0.2c0,8,0,16.1,0,24.1
			c0.6,2,1,4,1.3,6.1C225.2,192.9,225.6,190.9,226.3,188.9z"/>
		<path class="st0" d="M226.3,128.9c0-8,0-16.1,0-24.1c-0.4,0.1-0.8,0.1-1.3,0.2c-0.4-0.1-0.8-0.1-1.3-0.2c0,8,0,16.1,0,24.1
			c0.6,2,1,4,1.3,6.1C225.2,132.9,225.6,130.9,226.3,128.9z"/>
		<path class="st0" d="M301.3,218.9c0-8,0-16.1,0-24.1c-0.4,0.1-0.8,0.1-1.3,0.2c-0.4-0.1-0.8-0.1-1.3-0.2c0,8,0,16.1,0,24.1
			c0.6,2,1,4,1.3,6.1C300.2,222.9,300.6,220.9,301.3,218.9z"/>
		<path class="st0" d="M300,15c0.2-2.1,0.6-4.1,1.3-6.1c0-3,0-5.9,0-8.9h-2.5c0,3,0,5.9,0,8.9C299.4,10.9,299.8,12.9,300,15z"/>
		<path class="st0" d="M301.3,458.9c0-8,0-16.1,0-24.1c-0.4,0.1-0.8,0.1-1.3,0.2c-0.4,0-0.8-0.1-1.3-0.2c0,8,0,16.1,0,24.1
			c0.6,2,1,4,1.3,6.1C300.2,463,300.6,460.9,301.3,458.9z"/>
		<path class="st0" d="M301.3,188.9c0-8,0-16.1,0-24.1c-0.4,0.1-0.8,0.1-1.3,0.2c-0.4-0.1-0.8-0.1-1.3-0.2c0,8,0,16.1,0,24.1
			c0.6,2,1,4,1.3,6.1C300.2,192.9,300.6,190.9,301.3,188.9z"/>
		<path class="st0" d="M301.3,578.9c0-8,0-16.1,0-24.1c-0.4,0.1-0.8,0.1-1.3,0.2c-0.4,0-0.8-0.1-1.3-0.2c0,8,0,16.1,0,24.1
			c0.6,2,1,4,1.3,6.1C300.2,583,300.6,580.9,301.3,578.9z"/>
		<path class="st0" d="M301.3,398.9c0-8,0-16.1,0-24.1c-0.4,0.1-0.8,0.1-1.3,0.2c-0.4,0-0.8-0.1-1.3-0.2c0,8,0,16.1,0,24.1
			c0.6,2,1,4,1.3,6.1C300.2,403,300.6,400.9,301.3,398.9z"/>
		<path class="st0" d="M301.3,338.9c0-8,0-16.1,0-24.1c-0.4,0.1-0.8,0.1-1.3,0.2c-0.4,0-0.8-0.1-1.3-0.2c0,8,0,16.1,0,24.1
			c0.6,2,1,4,1.3,6.1C300.2,343,300.6,340.9,301.3,338.9z"/>
		<path class="st0" d="M301.3,308.9c0-8,0-16.1,0-24.1c-0.4,0.1-0.8,0.1-1.3,0.2c-0.4,0-0.8-0.1-1.3-0.2c0,8,0,16.1,0,24.1
			c0.6,2,1,4,1.3,6.1C300.2,313,300.6,310.9,301.3,308.9z"/>
		<path class="st0" d="M301.3,128.9c0-8,0-16.1,0-24.1c-0.4,0.1-0.8,0.1-1.3,0.2c-0.4-0.1-0.8-0.1-1.3-0.2c0,8,0,16.1,0,24.1
			c0.6,2,1,4,1.3,6.1C300.2,132.9,300.6,130.9,301.3,128.9z"/>
		<path class="st0" d="M301.3,278.9c0-8,0-16.1,0-24.1c-0.4,0.1-0.8,0.1-1.3,0.2c-0.4-0.1-0.8-0.1-1.3-0.2c0,8,0,16.1,0,24.1
			c0.6,2,1,4,1.3,6.1C300.2,283,300.6,280.9,301.3,278.9z"/>
		<path class="st0" d="M301.3,68.9c0-8,0-16.1,0-24.1c-0.4,0.1-0.8,0.1-1.3,0.2c-0.4,0-0.8-0.1-1.3-0.2c0,8,0,16.1,0,24.1
			c0.6,2,1,4,1.3,6.1C300.2,72.9,300.6,70.9,301.3,68.9z"/>
		<path class="st0" d="M301.3,38.9c0-8,0-16.1,0-24.1c-0.4,0.1-0.8,0.1-1.3,0.2c-0.4-0.1-0.8-0.1-1.3-0.2c0,8,0,16.1,0,24.1
			c0.6,2,1,4,1.3,6.1C300.2,42.9,300.6,40.9,301.3,38.9z"/>
		<path class="st0" d="M301.3,368.9c0-1.2,0-2.4,0-3.6c0-6.8,0-13.6,0-20.4c-0.4,0.1-0.8,0.1-1.3,0.2c-0.4,0-0.8-0.1-1.3-0.2
			c0,8,0,16.1,0,24.1c0.6,2,1,4,1.3,6.1C300.2,373,300.6,370.9,301.3,368.9z"/>
		<path class="st0" d="M301.3,158.9c0-8,0-16.1,0-24.1c-0.4,0.1-0.8,0.1-1.3,0.2c-0.4-0.1-0.8-0.1-1.3-0.2c0,8,0,16.1,0,24.1
			c0.6,2,1,4,1.3,6.1C300.2,162.9,300.6,160.9,301.3,158.9z"/>
		<path class="st0" d="M301.3,98.9c0-8,0-16.1,0-24.1c-0.4,0.1-0.8,0.1-1.3,0.2c-0.4-0.1-0.8-0.1-1.3-0.2c0,8,0,16.1,0,24.1
			c0.6,2,1,4,1.3,6.1C300.2,102.9,300.6,100.9,301.3,98.9z"/>
		<path class="st0" d="M301.3,428.9c0-8,0-16.1,0-24.1c-0.4,0.1-0.8,0.1-1.3,0.2c-0.4,0-0.8-0.1-1.3-0.2c0,8,0,16.1,0,24.1
			c0.6,2,1,4,1.3,6.1C300.2,433,300.6,430.9,301.3,428.9z"/>
		<path class="st0" d="M301.3,488.9c0-8,0-16.1,0-24.1c-0.4,0.1-0.8,0.1-1.3,0.2c-0.4,0-0.8-0.1-1.3-0.2c0,1.1,0,2.3,0,3.4
			c0,6.9,0,13.8,0,20.7c0.6,2,1,4,1.3,6.1C300.2,493,300.6,490.9,301.3,488.9z"/>
		<path class="st0" d="M301.3,518.9c0-8,0-16.1,0-24.1c-0.4,0.1-0.8,0.1-1.3,0.2c-0.4,0-0.8-0.1-1.3-0.2c0,8,0,16.1,0,24.1
			c0.6,2,1,4,1.3,6.1C300.2,523,300.6,520.9,301.3,518.9z"/>
		<path class="st0" d="M300,585c-0.4,0-0.8-0.1-1.3-0.2c0,5,0,10.1,0,15.2h2.5c0-5.1,0-10.1,0-15.2C300.8,584.9,300.4,585,300,585z"
			/>
		<path class="st0" d="M301.3,548.9c0-8,0-16.1,0-24.1c-0.4,0.1-0.8,0.1-1.3,0.2c-0.4,0-0.8-0.1-1.3-0.2c0,8,0,16.1,0,24.1
			c0.6,2,1,4,1.3,6.1C300.2,553,300.6,550.9,301.3,548.9z"/>
		<path class="st0" d="M301.3,248.9c0-8,0-16.1,0-24.1c-0.4,0.1-0.8,0.1-1.3,0.2c-0.4-0.1-0.8-0.1-1.3-0.2c0,3.3,0,6.6,0,9.9
			c0,4.7,0,9.5,0,14.2c0.6,2,1,4,1.3,6.1C300.2,252.9,300.6,250.9,301.3,248.9z"/>
		<path class="st0" d="M375,15c0.2-2.1,0.6-4.1,1.3-6.1c0-3,0-5.9,0-8.9h-2.5c0,3,0,5.9,0,8.9C374.4,10.9,374.8,12.9,375,15z"/>
		<path class="st0" d="M376.3,38.9c0-8,0-16.1,0-24.1c-0.4,0.1-0.8,0.1-1.3,0.2c-0.4-0.1-0.8-0.1-1.3-0.2c0,8,0,16.1,0,24.1
			c0.6,2,1,4,1.3,6.1C375.2,42.9,375.6,40.9,376.3,38.9z"/>
		<path class="st0" d="M376.3,308.9c0-8,0-16.1,0-24.1c-0.4,0.1-0.8,0.1-1.3,0.2c-0.4,0-0.8-0.1-1.3-0.2c0,8,0,16.1,0,24.1
			c0.6,2,1,4,1.3,6.1C375.2,313,375.6,310.9,376.3,308.9z"/>
		<path class="st0" d="M376.3,278.9c0-8,0-16.1,0-24.1c-0.4,0.1-0.8,0.1-1.3,0.2c-0.4-0.1-0.8-0.1-1.3-0.2c0,8,0,16.1,0,24.1
			c0.6,2,1,4,1.3,6.1C375.2,283,375.6,280.9,376.3,278.9z"/>
		<path class="st0" d="M376.3,338.9c0-8,0-16.1,0-24.1c-0.4,0.1-0.8,0.1-1.3,0.2c-0.4,0-0.8-0.1-1.3-0.2c0,8,0,16.1,0,24.1
			c0.6,2,1,4,1.3,6.1C375.2,343,375.6,340.9,376.3,338.9z"/>
		<path class="st0" d="M376.3,368.9c0-1.2,0-2.4,0-3.6c0-6.8,0-13.6,0-20.4c-0.4,0.1-0.8,0.1-1.3,0.2c-0.4,0-0.8-0.1-1.3-0.2
			c0,8,0,16.1,0,24.1c0.6,2,1,4,1.3,6.1C375.2,373,375.6,370.9,376.3,368.9z"/>
		<path class="st0" d="M376.3,158.9c0-8,0-16.1,0-24.1c-0.4,0.1-0.8,0.1-1.3,0.2c-0.4-0.1-0.8-0.1-1.3-0.2c0,8,0,16.1,0,24.1
			c0.6,2,1,4,1.3,6.1C375.2,162.9,375.6,160.9,376.3,158.9z"/>
		<path class="st0" d="M376.3,188.9c0-8,0-16.1,0-24.1c-0.4,0.1-0.8,0.1-1.3,0.2c-0.4-0.1-0.8-0.1-1.3-0.2c0,8,0,16.1,0,24.1
			c0.6,2,1,4,1.3,6.1C375.2,192.9,375.6,190.9,376.3,188.9z"/>
		<path class="st0" d="M376.3,218.9c0-8,0-16.1,0-24.1c-0.4,0.1-0.8,0.1-1.3,0.2c-0.4-0.1-0.8-0.1-1.3-0.2c0,8,0,16.1,0,24.1
			c0.6,2,1,4,1.3,6.1C375.2,222.9,375.6,220.9,376.3,218.9z"/>
		<path class="st0" d="M376.3,518.9c0-8,0-16.1,0-24.1c-0.4,0.1-0.8,0.1-1.3,0.2c-0.4,0-0.8-0.1-1.3-0.2c0,8,0,16.1,0,24.1
			c0.6,2,1,4,1.3,6.1C375.2,523,375.6,520.9,376.3,518.9z"/>
		<path class="st0" d="M376.3,548.9c0-8,0-16.1,0-24.1c-0.4,0.1-0.8,0.1-1.3,0.2c-0.4,0-0.8-0.1-1.3-0.2c0,8,0,16.1,0,24.1
			c0.6,2,1,4,1.3,6.1C375.2,553,375.6,550.9,376.3,548.9z"/>
		<path class="st0" d="M376.3,128.9c0-8,0-16.1,0-24.1c-0.4,0.1-0.8,0.1-1.3,0.2c-0.4-0.1-0.8-0.1-1.3-0.2c0,8,0,16.1,0,24.1
			c0.6,2,1,4,1.3,6.1C375.2,132.9,375.6,130.9,376.3,128.9z"/>
		<path class="st0" d="M376.3,578.9c0-8,0-16.1,0-24.1c-0.4,0.1-0.8,0.1-1.3,0.2c-0.4,0-0.8-0.1-1.3-0.2c0,8,0,16.1,0,24.1
			c0.6,2,1,4,1.3,6.1C375.2,583,375.6,580.9,376.3,578.9z"/>
		<path class="st0" d="M376.3,458.9c0-8,0-16.1,0-24.1c-0.4,0.1-0.8,0.1-1.3,0.2c-0.4,0-0.8-0.1-1.3-0.2c0,8,0,16.1,0,24.1
			c0.6,2,1,4,1.3,6.1C375.2,463,375.6,460.9,376.3,458.9z"/>
		<path class="st0" d="M376.3,428.9c0-8,0-16.1,0-24.1c-0.4,0.1-0.8,0.1-1.3,0.2c-0.4,0-0.8-0.1-1.3-0.2c0,8,0,16.1,0,24.1
			c0.6,2,1,4,1.3,6.1C375.2,433,375.6,430.9,376.3,428.9z"/>
		<path class="st0" d="M376.3,398.9c0-8,0-16.1,0-24.1c-0.4,0.1-0.8,0.1-1.3,0.2c-0.4,0-0.8-0.1-1.3-0.2c0,8,0,16.1,0,24.1
			c0.6,2,1,4,1.3,6.1C375.2,403,375.6,400.9,376.3,398.9z"/>
		<path class="st0" d="M376.3,488.9c0-8,0-16.1,0-24.1c-0.4,0.1-0.8,0.1-1.3,0.2c-0.4,0-0.8-0.1-1.3-0.2c0,1.1,0,2.3,0,3.4
			c0,6.9,0,13.8,0,20.7c0.6,2,1,4,1.3,6.1C375.2,493,375.6,490.9,376.3,488.9z"/>
		<path class="st0" d="M375,585c-0.4,0-0.8-0.1-1.3-0.2c0,5,0,10.1,0,15.2h2.5c0-5.1,0-10.1,0-15.2C375.8,584.9,375.4,585,375,585z"
			/>
		<path class="st0" d="M376.3,98.9c0-8,0-16.1,0-24.1c-0.4,0.1-0.8,0.1-1.3,0.2c-0.4-0.1-0.8-0.1-1.3-0.2c0,8,0,16.1,0,24.1
			c0.6,2,1,4,1.3,6.1C375.2,102.9,375.6,100.9,376.3,98.9z"/>
		<path class="st0" d="M376.3,68.9c0-8,0-16.1,0-24.1c-0.4,0.1-0.8,0.1-1.3,0.2c-0.4,0-0.8-0.1-1.3-0.2c0,8,0,16.1,0,24.1
			c0.6,2,1,4,1.3,6.1C375.2,72.9,375.6,70.9,376.3,68.9z"/>
		<path class="st0" d="M450,15c0.2-2.1,0.6-4.1,1.3-6.1c0-3,0-5.9,0-8.9h-2.5c0,3,0,5.9,0,8.9C449.4,10.9,449.8,12.9,450,15z"/>
		<path class="st0" d="M451.3,128.9c0-8,0-16.1,0-24.1c-0.4,0.1-0.8,0.1-1.3,0.2c-0.4-0.1-0.8-0.1-1.3-0.2c0,8,0,16.1,0,24.1
			c0.6,2,1,4,1.3,6.1C450.2,132.9,450.6,130.9,451.3,128.9z"/>
		<path class="st0" d="M451.3,38.9c0-8,0-16.1,0-24.1c-0.4,0.1-0.8,0.1-1.3,0.2c-0.4-0.1-0.8-0.1-1.3-0.2c0,8,0,16.1,0,24.1
			c0.6,2,1,4,1.3,6.1C450.2,42.9,450.6,40.9,451.3,38.9z"/>
		<path class="st0" d="M451.3,98.9c0-8,0-16.1,0-24.1c-0.4,0.1-0.8,0.1-1.3,0.2c-0.4-0.1-0.8-0.1-1.3-0.2c0,8,0,16.1,0,24.1
			c0.6,2,1,4,1.3,6.1C450.2,102.9,450.6,100.9,451.3,98.9z"/>
		<path class="st0" d="M451.3,158.9c0-8,0-16.1,0-24.1c-0.4,0.1-0.8,0.1-1.3,0.2c-0.4-0.1-0.8-0.1-1.3-0.2c0,8,0,16.1,0,24.1
			c0.6,2,1,4,1.3,6.1C450.2,162.9,450.6,160.9,451.3,158.9z"/>
		<path class="st0" d="M451.3,68.9c0-8,0-16.1,0-24.1c-0.4,0.1-0.8,0.1-1.3,0.2c-0.4,0-0.8-0.1-1.3-0.2c0,8,0,16.1,0,24.1
			c0.6,2,1,4,1.3,6.1C450.2,72.9,450.6,70.9,451.3,68.9z"/>
		<path class="st0" d="M451.3,398.9c0-8,0-16.1,0-24.1c-0.4,0.1-0.8,0.1-1.3,0.2c-0.4,0-0.8-0.1-1.3-0.2c0,8,0,16.1,0,24.1
			c0.6,2,1,4,1.3,6.1C450.2,403,450.6,400.9,451.3,398.9z"/>
		<path class="st0" d="M451.3,548.9c0-8,0-16.1,0-24.1c-0.4,0.1-0.8,0.1-1.3,0.2c-0.4,0-0.8-0.1-1.3-0.2c0,8,0,16.1,0,24.1
			c0.6,2,1,4,1.3,6.1C450.2,553,450.6,550.9,451.3,548.9z"/>
		<path class="st0" d="M451.3,308.9c0-8,0-16.1,0-24.1c-0.4,0.1-0.8,0.1-1.3,0.2c-0.4,0-0.8-0.1-1.3-0.2c0,8,0,16.1,0,24.1
			c0.6,2,1,4,1.3,6.1C450.2,313,450.6,310.9,451.3,308.9z"/>
		<path class="st0" d="M451.3,338.9c0-8,0-16.1,0-24.1c-0.4,0.1-0.8,0.1-1.3,0.2c-0.4,0-0.8-0.1-1.3-0.2c0,8,0,16.1,0,24.1
			c0.6,2,1,4,1.3,6.1C450.2,343,450.6,340.9,451.3,338.9z"/>
		<path class="st0" d="M451.3,578.9c0-8,0-16.1,0-24.1c-0.4,0.1-0.8,0.1-1.3,0.2c-0.4,0-0.8-0.1-1.3-0.2c0,8,0,16.1,0,24.1
			c0.6,2,1,4,1.3,6.1C450.2,583,450.6,580.9,451.3,578.9z"/>
		<path class="st0" d="M451.3,278.9c0-8,0-16.1,0-24.1c-0.4,0.1-0.8,0.1-1.3,0.2c-0.4-0.1-0.8-0.1-1.3-0.2c0,8,0,16.1,0,24.1
			c0.6,2,1,4,1.3,6.1C450.2,283,450.6,280.9,451.3,278.9z"/>
		<path class="st0" d="M451.3,488.9c0-8,0-16.1,0-24.1c-0.4,0.1-0.8,0.1-1.3,0.2c-0.4,0-0.8-0.1-1.3-0.2c0,1.1,0,2.3,0,3.4
			c0,6.9,0,13.8,0,20.7c0.6,2,1,4,1.3,6.1C450.2,493,450.6,490.9,451.3,488.9z"/>
		<path class="st0" d="M450,585c-0.4,0-0.8-0.1-1.3-0.2c0,5,0,10.1,0,15.2h2.5c0-5.1,0-10.1,0-15.2C450.8,584.9,450.4,585,450,585z"
			/>
		<path class="st0" d="M451.3,458.9c0-8,0-16.1,0-24.1c-0.4,0.1-0.8,0.1-1.3,0.2c-0.4,0-0.8-0.1-1.3-0.2c0,8,0,16.1,0,24.1
			c0.6,2,1,4,1.3,6.1C450.2,463,450.6,460.9,451.3,458.9z"/>
		<path class="st0" d="M451.3,518.9c0-8,0-16.1,0-24.1c-0.4,0.1-0.8,0.1-1.3,0.2c-0.4,0-0.8-0.1-1.3-0.2c0,8,0,16.1,0,24.1
			c0.6,2,1,4,1.3,6.1C450.2,523,450.6,520.9,451.3,518.9z"/>
		<path class="st0" d="M451.3,428.9c0-8,0-16.1,0-24.1c-0.4,0.1-0.8,0.1-1.3,0.2c-0.4,0-0.8-0.1-1.3-0.2c0,8,0,16.1,0,24.1
			c0.6,2,1,4,1.3,6.1C450.2,433,450.6,430.9,451.3,428.9z"/>
		<path class="st0" d="M451.3,368.9c0-1.2,0-2.4,0-3.6c0-6.8,0-13.6,0-20.4c-0.4,0.1-0.8,0.1-1.3,0.2c-0.4,0-0.8-0.1-1.3-0.2
			c0,8,0,16.1,0,24.1c0.6,2,1,4,1.3,6.1C450.2,373,450.6,370.9,451.3,368.9z"/>
		<path class="st0" d="M451.3,248.9c0-8,0-16.1,0-24.1c-0.4,0.1-0.8,0.1-1.3,0.2c-0.4-0.1-0.8-0.1-1.3-0.2c0,3.3,0,6.6,0,9.9
			c0,4.7,0,9.5,0,14.2c0.6,2,1,4,1.3,6.1C450.2,252.9,450.6,250.9,451.3,248.9z"/>
		<path class="st0" d="M451.3,188.9c0-8,0-16.1,0-24.1c-0.4,0.1-0.8,0.1-1.3,0.2c-0.4-0.1-0.8-0.1-1.3-0.2c0,8,0,16.1,0,24.1
			c0.6,2,1,4,1.3,6.1C450.2,192.9,450.6,190.9,451.3,188.9z"/>
		<path class="st0" d="M451.3,218.9c0-8,0-16.1,0-24.1c-0.4,0.1-0.8,0.1-1.3,0.2c-0.4-0.1-0.8-0.1-1.3-0.2c0,8,0,16.1,0,24.1
			c0.6,2,1,4,1.3,6.1C450.2,222.9,450.6,220.9,451.3,218.9z"/>
		<path class="st0" d="M526.3,458.9c0-8,0-16.1,0-24.1c-0.4,0.1-0.8,0.1-1.3,0.2c-0.4,0-0.8-0.1-1.3-0.2c0,8,0,16.1,0,24.1
			c0.6,2,1,4,1.3,6.1C525.2,463,525.7,460.9,526.3,458.9z"/>
		<path class="st0" d="M526.3,368.9c0-1.2,0-2.4,0-3.6c0-6.8,0-13.6,0-20.4c-0.4,0.1-0.8,0.1-1.3,0.2c-0.4,0-0.8-0.1-1.3-0.2
			c0,8,0,16.1,0,24.1c0.6,2,1,4,1.3,6.1C525.2,373,525.7,370.9,526.3,368.9z"/>
		<path class="st0" d="M526.3,428.9c0-8,0-16.1,0-24.1c-0.4,0.1-0.8,0.1-1.3,0.2c-0.4,0-0.8-0.1-1.3-0.2c0,8,0,16.1,0,24.1
			c0.6,2,1,4,1.3,6.1C525.2,433,525.7,430.9,526.3,428.9z"/>
		<path class="st0" d="M526.3,338.9c0-8,0-16.1,0-24.1c-0.4,0.1-0.8,0.1-1.3,0.2c-0.4,0-0.8-0.1-1.3-0.2c0,8,0,16.1,0,24.1
			c0.6,2,1,4,1.3,6.1C525.2,343,525.7,340.9,526.3,338.9z"/>
		<path class="st0" d="M525,585c-0.4,0-0.8-0.1-1.3-0.2c0,5,0,10.1,0,15.2h2.5c0-5.1,0-10.1,0-15.2C525.8,584.9,525.4,585,525,585z"
			/>
		<path class="st0" d="M526.3,548.9c0-8,0-16.1,0-24.1c-0.4,0.1-0.8,0.1-1.3,0.2c-0.4,0-0.8-0.1-1.3-0.2c0,8,0,16.1,0,24.1
			c0.6,2,1,4,1.3,6.1C525.2,553,525.7,550.9,526.3,548.9z"/>
		<path class="st0" d="M526.3,518.9c0-8,0-16.1,0-24.1c-0.4,0.1-0.8,0.1-1.3,0.2c-0.4,0-0.8-0.1-1.3-0.2c0,8,0,16.1,0,24.1
			c0.6,2,1,4,1.3,6.1C525.2,523,525.7,520.9,526.3,518.9z"/>
		<path class="st0" d="M526.3,398.9c0-8,0-16.1,0-24.1c-0.4,0.1-0.8,0.1-1.3,0.2c-0.4,0-0.8-0.1-1.3-0.2c0,8,0,16.1,0,24.1
			c0.6,2,1,4,1.3,6.1C525.2,403,525.7,400.9,526.3,398.9z"/>
		<path class="st0" d="M526.3,578.9c0-8,0-16.1,0-24.1c-0.4,0.1-0.8,0.1-1.3,0.2c-0.4,0-0.8-0.1-1.3-0.2c0,8,0,16.1,0,24.1
			c0.6,2,1,4,1.3,6.1C525.2,583,525.7,580.9,526.3,578.9z"/>
		<path class="st0" d="M526.3,488.9c0-8,0-16.1,0-24.1c-0.4,0.1-0.8,0.1-1.3,0.2c-0.4,0-0.8-0.1-1.3-0.2c0,1.1,0,2.3,0,3.4
			c0,6.9,0,13.8,0,20.7c0.6,2,1,4,1.3,6.1C525.2,493,525.7,490.9,526.3,488.9z"/>
		<path class="st0" d="M526.3,158.9c0-8,0-16.1,0-24.1c-0.4,0.1-0.8,0.1-1.3,0.2c-0.4-0.1-0.8-0.1-1.3-0.2c0,8,0,16.1,0,24.1
			c0.6,2,1,4,1.3,6.1C525.2,162.9,525.7,160.9,526.3,158.9z"/>
		<path class="st0" d="M526.3,248.9c0-8,0-16.1,0-24.1c-0.4,0.1-0.8,0.1-1.3,0.2c-0.4-0.1-0.8-0.1-1.3-0.2c0,3.3,0,6.6,0,9.9
			c0,4.7,0,9.5,0,14.2c0.6,2,1,4,1.3,6.1C525.2,252.9,525.7,250.9,526.3,248.9z"/>
		<path class="st0" d="M526.3,68.9c0-8,0-16.1,0-24.1c-0.4,0.1-0.8,0.1-1.3,0.2c-0.4,0-0.8-0.1-1.3-0.2c0,8,0,16.1,0,24.1
			c0.6,2,1,4,1.3,6.1C525.2,72.9,525.7,70.9,526.3,68.9z"/>
		<path class="st0" d="M526.3,98.9c0-8,0-16.1,0-24.1c-0.4,0.1-0.8,0.1-1.3,0.2c-0.4-0.1-0.8-0.1-1.3-0.2c0,8,0,16.1,0,24.1
			c0.6,2,1,4,1.3,6.1C525.2,102.9,525.7,100.9,526.3,98.9z"/>
		<path class="st0" d="M526.3,218.9c0-8,0-16.1,0-24.1c-0.4,0.1-0.8,0.1-1.3,0.2c-0.4-0.1-0.8-0.1-1.3-0.2c0,8,0,16.1,0,24.1
			c0.6,2,1,4,1.3,6.1C525.2,222.9,525.7,220.9,526.3,218.9z"/>
		<path class="st0" d="M526.3,38.9c0-8,0-16.1,0-24.1c-0.4,0.1-0.8,0.1-1.3,0.2c-0.4-0.1-0.8-0.1-1.3-0.2c0,8,0,16.1,0,24.1
			c0.6,2,1,4,1.3,6.1C525.2,42.9,525.7,40.9,526.3,38.9z"/>
		<path class="st0" d="M526.3,278.9c0-8,0-16.1,0-24.1c-0.4,0.1-0.8,0.1-1.3,0.2c-0.4-0.1-0.8-0.1-1.3-0.2c0,8,0,16.1,0,24.1
			c0.6,2,1,4,1.3,6.1C525.2,283,525.7,280.9,526.3,278.9z"/>
		<path class="st0" d="M526.3,308.9c0-8,0-16.1,0-24.1c-0.4,0.1-0.8,0.1-1.3,0.2c-0.4,0-0.8-0.1-1.3-0.2c0,8,0,16.1,0,24.1
			c0.6,2,1,4,1.3,6.1C525.2,313,525.7,310.9,526.3,308.9z"/>
		<path class="st0" d="M526.3,128.9c0-8,0-16.1,0-24.1c-0.4,0.1-0.8,0.1-1.3,0.2c-0.4-0.1-0.8-0.1-1.3-0.2c0,8,0,16.1,0,24.1
			c0.6,2,1,4,1.3,6.1C525.2,132.9,525.7,130.9,526.3,128.9z"/>
		<path class="st0" d="M526.3,188.9c0-8,0-16.1,0-24.1c-0.4,0.1-0.8,0.1-1.3,0.2c-0.4-0.1-0.8-0.1-1.3-0.2c0,8,0,16.1,0,24.1
			c0.6,2,1,4,1.3,6.1C525.2,192.9,525.7,190.9,526.3,188.9z"/>
		<path class="st0" d="M525,15c0.2-2.1,0.7-4.1,1.3-6.1c0-3,0-5.9,0-8.9h-2.5c0,3,0,5.9,0,8.9C524.3,10.9,524.8,12.9,525,15z"/>
		<path class="st0" d="M598.8,98.9c0.6,2,1,4,1.3,6.1V75c-0.4-0.1-0.8-0.1-1.3-0.2C598.8,82.9,598.8,90.9,598.8,98.9z"/>
		<path class="st0" d="M598.8,68.9c0.6,2,1,4,1.3,6.1V45c-0.4,0-0.8-0.1-1.3-0.2C598.8,52.9,598.8,60.9,598.8,68.9z"/>
		<path class="st0" d="M598.8,38.9c0.6,2,1,4,1.3,6.1V15c-0.4-0.1-0.8-0.1-1.3-0.2C598.8,22.9,598.8,30.9,598.8,38.9z"/>
		<path class="st0" d="M598.8,428.9c0.6,2,1,4,1.3,6.1v-30c-0.4,0-0.8-0.1-1.3-0.2C598.8,412.9,598.8,420.9,598.8,428.9z"/>
		<path class="st0" d="M598.8,158.9c0.6,2,1,4,1.3,6.1v-30c-0.4-0.1-0.8-0.1-1.3-0.2C598.8,142.9,598.8,150.9,598.8,158.9z"/>
		<path class="st0" d="M598.8,468.3c0,6.9,0,13.8,0,20.7c0.6,2,1,4,1.3,6.1v-30c-0.4,0-0.8-0.1-1.3-0.2
			C598.8,466,598.8,467.1,598.8,468.3z"/>
		<path class="st0" d="M598.8,578.9c0.6,2,1,4,1.3,6.1v-30c-0.4,0-0.8-0.1-1.3-0.2C598.8,562.9,598.8,570.9,598.8,578.9z"/>
		<path class="st0" d="M598.8,458.9c0.6,2,1,4,1.3,6.1v-30c-0.4,0-0.8-0.1-1.3-0.2C598.8,442.9,598.8,450.9,598.8,458.9z"/>
		<path class="st0" d="M598.8,518.9c0.6,2,1,4,1.3,6.1v-30c-0.4,0-0.8-0.1-1.3-0.2C598.8,502.9,598.8,510.9,598.8,518.9z"/>
		<path class="st0" d="M600,15V0h-1.3c0,3,0,5.9,0,8.9C599.3,10.9,599.8,12.9,600,15z"/>
		<path class="st0" d="M598.8,128.9c0.6,2,1,4,1.3,6.1v-30c-0.4-0.1-0.8-0.1-1.3-0.2C598.8,112.9,598.8,120.9,598.8,128.9z"/>
		<path class="st0" d="M598.8,278.9c0.6,2,1,4,1.3,6.1v-30c-0.4-0.1-0.8-0.1-1.3-0.2C598.8,262.9,598.8,270.9,598.8,278.9z"/>
		<path class="st0" d="M598.8,548.9c0.6,2,1,4,1.3,6.1v-30c-0.4,0-0.8-0.1-1.3-0.2C598.8,532.9,598.8,540.9,598.8,548.9z"/>
		<path class="st0" d="M598.8,398.9c0.6,2,1,4,1.3,6.1v-30c-0.4,0-0.8-0.1-1.3-0.2C598.8,382.9,598.8,390.9,598.8,398.9z"/>
		<path class="st0" d="M598.8,308.9c0.6,2,1,4,1.3,6.1v-30c-0.4,0-0.8-0.1-1.3-0.2C598.8,292.9,598.8,300.9,598.8,308.9z"/>
		<path class="st0" d="M598.8,368.9c0.6,2,1,4,1.3,6.1v-30c-0.4,0-0.8-0.1-1.3-0.2C598.8,352.9,598.8,360.9,598.8,368.9z"/>
		<path class="st0" d="M598.8,338.9c0.6,2,1,4,1.3,6.1v-30c-0.4,0-0.8-0.1-1.3-0.2C598.8,322.9,598.8,330.9,598.8,338.9z"/>
		<path class="st0" d="M598.8,600h1.3v-15c-0.4,0-0.8-0.1-1.3-0.2C598.8,589.9,598.8,594.9,598.8,600z"/>
		<path class="st0" d="M598.8,234.7c0,4.7,0,9.5,0,14.2c0.6,2,1,4,1.3,6.1v-30c-0.4-0.1-0.8-0.1-1.3-0.2
			C598.8,228.1,598.8,231.4,598.8,234.7z"/>
		<path class="st0" d="M598.8,188.9c0.6,2,1,4,1.3,6.1v-30c-0.4-0.1-0.8-0.1-1.3-0.2C598.8,172.9,598.8,180.9,598.8,188.9z"/>
		<path class="st0" d="M598.8,218.9c0.6,2,1,4,1.3,6.1v-30c-0.4-0.1-0.8-0.1-1.3-0.2C598.8,202.9,598.8,210.9,598.8,218.9z"/>
		<path class="st1" d="M20.3,35.3c5.7-5.7,8.9-12.9,9.7-20.3c-7.4,0.8-14.6,4.1-20.3,9.7c-4.1,4.1-6.9,9-8.5,14.2
			c-0.6,2-1,4-1.3,6.1c0.4,0,0.8-0.1,1.3-0.2C8.2,43.8,14.9,40.6,20.3,35.3z"/>
		<path class="st1" d="M20.3,65.3c5.7-5.7,8.9-12.9,9.7-20.3c-7.4,0.8-14.6,4.1-20.3,9.7c-4.1,4.1-6.9,9-8.5,14.2
			c-0.6,2-1,4-1.3,6.1c0.4-0.1,0.8-0.1,1.3-0.2C8.2,73.8,14.9,70.6,20.3,65.3z"/>
		<path class="st1" d="M20.3,125.3c5.7-5.7,8.9-12.9,9.7-20.3c-7.4,0.8-14.6,4.1-20.3,9.7c-4.1,4.1-6.9,9-8.5,14.2
			c-0.6,2-1,4-1.3,6.1c0.4-0.1,0.8-0.1,1.3-0.2C8.2,133.8,14.9,130.6,20.3,125.3z"/>
		<path class="st1" d="M20.3,155.3c5.7-5.7,8.9-12.9,9.7-20.3c-7.4,0.8-14.6,4.1-20.3,9.7c-4.1,4.1-6.9,9-8.5,14.2
			c-0.6,2-1,4-1.3,6.1c0.4-0.1,0.8-0.1,1.3-0.2C8.2,163.8,14.9,160.6,20.3,155.3z"/>
		<path class="st1" d="M20.3,185.3c5.7-5.7,8.9-12.9,9.7-20.3c-7.4,0.8-14.6,4.1-20.3,9.7c-4.1,4.1-6.9,9-8.5,14.2
			c-0.6,2-1,4-1.3,6.1c0.4-0.1,0.8-0.1,1.3-0.2C8.2,193.8,14.9,190.6,20.3,185.3z"/>
		<path class="st1" d="M20.3,215.3c5.7-5.7,8.9-12.9,9.7-20.3c-7.4,0.8-14.6,4.1-20.3,9.7c-4.1,4.1-6.9,9-8.5,14.2
			c-0.6,2-1,4-1.3,6.1c0.4-0.1,0.8-0.1,1.3-0.2C8.2,223.8,14.9,220.6,20.3,215.3z"/>
		<path class="st1" d="M20.3,245.3c5.7-5.7,8.9-12.9,9.7-20.3c-7.4,0.8-14.6,4.1-20.3,9.7c-4.1,4.1-6.9,9-8.5,14.2
			c-0.6,2-1,4-1.3,6.1c0.4-0.1,0.8-0.1,1.3-0.2C8.2,253.8,14.9,250.6,20.3,245.3z"/>
		<path class="st1" d="M20.3,275.3c5.7-5.7,8.9-12.9,9.7-20.3c-7.4,0.8-14.6,4.1-20.3,9.7c-4.1,4.1-6.9,9-8.5,14.2
			c-0.6,2-1,4-1.3,6.1c0.4,0,0.8-0.1,1.3-0.2C8.2,283.8,14.9,280.6,20.3,275.3z"/>
		<path class="st1" d="M20.3,305.3c5.7-5.7,8.9-12.9,9.7-20.3c-7.4,0.8-14.6,4.1-20.3,9.7c-4.1,4.1-6.9,9-8.5,14.2
			c-0.6,2-1,4-1.3,6.1c0.4,0,0.8-0.1,1.3-0.2C8.2,313.8,14.9,310.6,20.3,305.3z"/>
		<path class="st1" d="M20.3,335.3c5.7-5.7,8.9-12.9,9.7-20.3c-7.4,0.8-14.6,4.1-20.3,9.7c-4.1,4.1-6.9,9-8.5,14.2
			c-0.6,2-1,4-1.3,6.1c0.4,0,0.8-0.1,1.3-0.2C8.2,343.8,14.9,340.6,20.3,335.3z"/>
		<path class="st1" d="M20.3,365.3c5.7-5.7,8.9-12.9,9.7-20.3c-7.4,0.8-14.6,4.1-20.3,9.7c-4.1,4.1-6.9,9-8.5,14.2
			c-0.6,2-1,4-1.3,6.1c0.4,0,0.8-0.1,1.3-0.2C8.2,373.8,14.9,370.6,20.3,365.3z"/>
		<path class="st1" d="M20.3,395.3c5.7-5.7,8.9-12.9,9.7-20.3c-7.4,0.8-14.6,4.1-20.3,9.7c-4.1,4.1-6.9,9-8.5,14.2
			c-0.6,2-1,4-1.3,6.1c0.4,0,0.8-0.1,1.3-0.2C8.2,403.8,14.9,400.6,20.3,395.3z"/>
		<path class="st1" d="M20.3,425.3c5.7-5.7,8.9-12.9,9.7-20.3c-7.4,0.8-14.6,4.1-20.3,9.7c-4.1,4.1-6.9,9-8.5,14.2
			c-0.6,2-1,4-1.3,6.1c0.4,0,0.8-0.1,1.3-0.2C8.2,433.8,14.9,430.6,20.3,425.3z"/>
		<path class="st1" d="M20.3,455.3c5.7-5.7,8.9-12.9,9.7-20.3c-7.4,0.8-14.6,4.1-20.3,9.7c-4.1,4.1-6.9,9-8.5,14.2
			c-0.6,2-1,4-1.3,6.1c0.4,0,0.8-0.1,1.3-0.2C8.2,463.8,14.9,460.6,20.3,455.3z"/>
		<path class="st1" d="M20.3,485.3c5.7-5.7,8.9-12.9,9.7-20.3c-7.4,0.8-14.6,4.1-20.3,9.7c-4.1,4.1-6.9,9-8.5,14.2
			c-0.6,2-1,4-1.3,6.1c0.4,0,0.8-0.1,1.3-0.2C8.2,493.8,14.9,490.6,20.3,485.3z"/>
		<path class="st1" d="M20.3,515.3c5.7-5.7,8.9-12.9,9.7-20.3c-7.4,0.8-14.6,4.1-20.3,9.7c-4.1,4.1-6.9,9-8.5,14.2
			c-0.6,2-1,4-1.3,6.1c0.4,0,0.8-0.1,1.3-0.2C8.2,523.8,14.9,520.6,20.3,515.3z"/>
		<path class="st1" d="M20.3,545.3c5.7-5.7,8.9-12.9,9.7-20.3c-7.4,0.8-14.6,4.1-20.3,9.7c-4.1,4.1-6.9,9-8.5,14.2
			c-0.6,2-1,4-1.3,6.1c0.4,0,0.8-0.1,1.3-0.2C8.2,553.8,14.9,550.6,20.3,545.3z"/>
		<path class="st1" d="M20.3,575.3c5.7-5.7,8.9-12.9,9.7-20.3c-7.4,0.8-14.6,4.1-20.3,9.7c-4.1,4.1-6.9,9-8.5,14.2
			c-0.6,2-1,4-1.3,6.1c0.4,0,0.8-0.1,1.3-0.2C8.2,583.8,14.9,580.6,20.3,575.3z"/>
		<path class="st1" d="M9.7,594.7c-1.6,1.6-3.1,3.4-4.3,5.3h19.1c3-4.6,4.9-9.7,5.4-15C22.6,585.8,15.4,589.1,9.7,594.7z"/>
		<path class="st1" d="M76.3,44.8c7-1,13.7-4.2,19-9.6c5.7-5.7,8.9-12.9,9.7-20.3c-7.4,0.8-14.6,4.1-20.3,9.7
			c-4.1,4.1-6.9,9-8.5,14.2c-0.6,2-1,4-1.3,6.1C75.4,44.9,75.8,44.9,76.3,44.8z"/>
		<path class="st1" d="M73.8,38.9c-1.6-5.2-4.4-10.1-8.5-14.2C59.6,19.1,52.4,15.8,45,15c0.8,7.4,4.1,14.6,9.7,20.3
			c5.4,5.3,12.1,8.5,19,9.6c0.4,0.1,0.8,0.1,1.3,0.2C74.8,42.9,74.3,40.9,73.8,38.9z"/>
		<path class="st1" d="M76.3,74.8c7-1,13.7-4.2,19-9.6c5.7-5.7,8.9-12.9,9.7-20.3c-7.4,0.8-14.6,4.1-20.3,9.7
			c-4.1,4.1-6.9,9-8.5,14.2c-0.6,2-1,4-1.3,6.1C75.4,74.9,75.8,74.9,76.3,74.8z"/>
		<path class="st1" d="M73.8,68.9c-1.6-5.2-4.4-10.1-8.5-14.2C59.6,49.1,52.4,45.8,45,45c0.8,7.4,4.1,14.6,9.7,20.3
			c5.4,5.4,12.1,8.5,19,9.6c0.4,0.1,0.8,0.1,1.3,0.2C74.8,72.9,74.3,70.9,73.8,68.9z"/>
		<path class="st1" d="M76.3,104.8c7-1,13.7-4.2,19-9.6c5.7-5.7,8.9-12.9,9.7-20.3c-7.4,0.8-14.6,4.1-20.3,9.7
			c-4.1,4.1-6.9,9-8.5,14.2c-0.6,2-1,4-1.3,6.1C75.4,104.9,75.8,104.9,76.3,104.8z"/>
		<path class="st1" d="M73.8,98.9c-1.6-5.2-4.4-10.1-8.5-14.2C59.6,79.1,52.4,75.8,45,75c0.8,7.4,4.1,14.6,9.7,20.3
			c5.4,5.4,12.1,8.5,19,9.6c0.4,0.1,0.8,0.1,1.3,0.2C74.8,102.9,74.3,100.9,73.8,98.9z"/>
		<path class="st1" d="M76.3,134.8c7-1,13.7-4.2,19-9.6c5.7-5.7,8.9-12.9,9.7-20.3c-7.4,0.8-14.6,4.1-20.3,9.7
			c-4.1,4.1-6.9,9-8.5,14.2c-0.6,2-1,4-1.3,6.1C75.4,134.9,75.8,134.9,76.3,134.8z"/>
		<path class="st1" d="M73.8,128.9c-1.6-5.2-4.4-10.1-8.5-14.2c-5.7-5.7-12.9-8.9-20.3-9.7c0.8,7.4,4.1,14.6,9.7,20.3
			c5.4,5.4,12.1,8.5,19,9.6c0.4,0.1,0.8,0.1,1.3,0.2C74.8,132.9,74.3,130.9,73.8,128.9z"/>
		<path class="st1" d="M76.3,164.8c7-1,13.7-4.2,19-9.6c5.7-5.7,8.9-12.9,9.7-20.3c-7.4,0.8-14.6,4.1-20.3,9.7
			c-4.1,4.1-6.9,9-8.5,14.2c-0.6,2-1,4-1.3,6.1C75.4,164.9,75.8,164.9,76.3,164.8z"/>
		<path class="st1" d="M73.8,158.9c-1.6-5.2-4.4-10.1-8.5-14.2c-5.7-5.7-12.9-8.9-20.3-9.7c0.8,7.4,4.1,14.6,9.7,20.3
			c5.4,5.4,12.1,8.5,19,9.6c0.4,0.1,0.8,0.1,1.3,0.2C74.8,162.9,74.3,160.9,73.8,158.9z"/>
		<path class="st1" d="M76.3,194.8c7-1,13.7-4.2,19-9.6c5.7-5.7,8.9-12.9,9.7-20.3c-7.4,0.8-14.6,4.1-20.3,9.7
			c-4.1,4.1-6.9,9-8.5,14.2c-0.6,2-1,4-1.3,6.1C75.4,194.9,75.8,194.9,76.3,194.8z"/>
		<path class="st1" d="M73.8,188.9c-1.6-5.2-4.4-10.1-8.5-14.2c-5.7-5.7-12.9-8.9-20.3-9.7c0.8,7.4,4.1,14.6,9.7,20.3
			c5.4,5.4,12.1,8.5,19,9.6c0.4,0.1,0.8,0.1,1.3,0.2C74.8,192.9,74.3,190.9,73.8,188.9z"/>
		<path class="st1" d="M76.3,224.8c7-1,13.7-4.2,19-9.6c5.7-5.7,8.9-12.9,9.7-20.3c-7.4,0.8-14.6,4.1-20.3,9.7
			c-4.1,4.1-6.9,9-8.5,14.2c-0.6,2-1,4-1.3,6.1C75.4,224.9,75.8,224.9,76.3,224.8z"/>
		<path class="st1" d="M73.8,218.9c-1.6-5.2-4.4-10.1-8.5-14.2c-5.7-5.7-12.9-8.9-20.3-9.7c0.8,7.4,4.1,14.6,9.7,20.3
			c5.4,5.4,12.1,8.5,19,9.6c0.4,0.1,0.8,0.1,1.3,0.2C74.8,222.9,74.3,220.9,73.8,218.9z"/>
		<path class="st1" d="M76.3,254.8c7-1,13.7-4.2,19-9.6c5.7-5.7,8.9-12.9,9.7-20.3c-7.4,0.8-14.6,4.1-20.3,9.7
			c-4.1,4.1-6.9,9-8.5,14.2c-0.6,2-1,4-1.3,6.1C75.4,254.9,75.8,254.9,76.3,254.8z"/>
		<path class="st1" d="M73.8,248.9c-1.6-5.2-4.4-10.1-8.5-14.2c-5.7-5.7-12.9-8.9-20.3-9.7c0.8,7.4,4.1,14.6,9.7,20.3
			c5.4,5.4,12.1,8.5,19,9.6c0.4,0.1,0.8,0.1,1.3,0.2C74.8,252.9,74.3,250.9,73.8,248.9z"/>
		<path class="st1" d="M76.3,284.8c7-1,13.7-4.2,19-9.6c5.7-5.7,8.9-12.9,9.7-20.3c-7.4,0.8-14.6,4.1-20.3,9.7
			c-4.1,4.1-6.9,9-8.5,14.2c-0.6,2-1,4-1.3,6.1C75.4,285,75.8,284.9,76.3,284.8z"/>
		<path class="st1" d="M73.8,278.9c-1.6-5.2-4.4-10.1-8.5-14.2c-5.7-5.7-12.9-8.9-20.3-9.7c0.8,7.4,4.1,14.6,9.7,20.3
			c5.4,5.4,12.1,8.5,19,9.6c0.4,0.1,0.8,0.1,1.3,0.2C74.8,283,74.3,280.9,73.8,278.9z"/>
		<path class="st1" d="M76.3,314.8c7-1,13.7-4.2,19-9.6c5.7-5.7,8.9-12.9,9.7-20.3c-7.4,0.8-14.6,4.1-20.3,9.7
			c-4.1,4.1-6.9,9-8.5,14.2c-0.6,2-1,4-1.3,6.1C75.4,315,75.8,314.9,76.3,314.8z"/>
		<path class="st1" d="M73.8,308.9c-1.6-5.2-4.4-10.1-8.5-14.2c-5.7-5.7-12.9-8.9-20.3-9.7c0.8,7.4,4.1,14.6,9.7,20.3
			c5.4,5.4,12.1,8.5,19,9.6c0.4,0.1,0.8,0.1,1.3,0.2C74.8,313,74.3,310.9,73.8,308.9z"/>
		<path class="st1" d="M76.3,344.8c7-1,13.7-4.2,19-9.6c5.7-5.7,8.9-12.9,9.7-20.3c-7.4,0.8-14.6,4.1-20.3,9.7
			c-4.1,4.1-6.9,9-8.5,14.2c-0.6,2-1,4-1.3,6.1C75.4,345,75.8,344.9,76.3,344.8z"/>
		<path class="st1" d="M73.8,338.9c-1.6-5.2-4.4-10.1-8.5-14.2c-5.7-5.7-12.9-8.9-20.3-9.7c0.8,7.4,4.1,14.6,9.7,20.3
			c5.4,5.4,12.1,8.5,19,9.6c0.4,0.1,0.8,0.1,1.3,0.2C74.8,343,74.3,340.9,73.8,338.9z"/>
		<path class="st1" d="M76.3,374.8c7-1,13.7-4.2,19-9.6c5.7-5.7,8.9-12.9,9.7-20.3c-7.4,0.8-14.6,4.1-20.3,9.7
			c-4.1,4.1-6.9,9-8.5,14.2c-0.6,2-1,4-1.3,6.1C75.4,375,75.8,374.9,76.3,374.8z"/>
		<path class="st1" d="M73.8,368.9c-1.6-5.2-4.4-10.1-8.5-14.2c-5.7-5.7-12.9-8.9-20.3-9.7c0.8,7.4,4.1,14.6,9.7,20.3
			c5.4,5.4,12.1,8.5,19,9.6c0.4,0.1,0.8,0.1,1.3,0.2C74.8,373,74.3,370.9,73.8,368.9z"/>
		<path class="st1" d="M76.3,404.8c7-1,13.7-4.2,19-9.6c5.7-5.7,8.9-12.9,9.7-20.3c-7.4,0.8-14.6,4.1-20.3,9.7
			c-4.1,4.1-6.9,9-8.5,14.2c-0.6,2-1,4-1.3,6.1C75.4,405,75.8,404.9,76.3,404.8z"/>
		<path class="st1" d="M73.8,398.9c-1.6-5.2-4.4-10.1-8.5-14.2c-5.7-5.7-12.9-8.9-20.3-9.7c0.8,7.4,4.1,14.6,9.7,20.3
			c5.4,5.4,12.1,8.5,19,9.6c0.4,0.1,0.8,0.1,1.3,0.2C74.8,403,74.3,400.9,73.8,398.9z"/>
		<path class="st1" d="M76.3,434.8c7-1,13.7-4.2,19-9.6c5.7-5.7,8.9-12.9,9.7-20.3c-7.4,0.8-14.6,4.1-20.3,9.7
			c-4.1,4.1-6.9,9-8.5,14.2c-0.6,2-1,4-1.3,6.1C75.4,435,75.8,434.9,76.3,434.8z"/>
		<path class="st1" d="M73.8,428.9c-1.6-5.2-4.4-10.1-8.5-14.2c-5.7-5.7-12.9-8.9-20.3-9.7c0.8,7.4,4.1,14.6,9.7,20.3
			c5.4,5.4,12.1,8.5,19,9.6c0.4,0.1,0.8,0.1,1.3,0.2C74.8,433,74.3,430.9,73.8,428.9z"/>
		<path class="st1" d="M76.3,464.8c7-1,13.7-4.2,19-9.6c5.7-5.7,8.9-12.9,9.7-20.3c-7.4,0.8-14.6,4.1-20.3,9.7
			c-4.1,4.1-6.9,9-8.5,14.2c-0.6,2-1,4-1.3,6.1C75.4,465,75.8,464.9,76.3,464.8z"/>
		<path class="st1" d="M73.8,458.9c-1.6-5.2-4.4-10.1-8.5-14.2c-5.7-5.7-12.9-8.9-20.3-9.7c0.8,7.4,4.1,14.6,9.7,20.3
			c5.4,5.4,12.1,8.5,19,9.6c0.4,0.1,0.8,0.1,1.3,0.2C74.8,463,74.3,460.9,73.8,458.9z"/>
		<path class="st1" d="M76.3,494.8c7-1,13.7-4.2,19-9.6c5.7-5.7,8.9-12.9,9.7-20.3c-7.4,0.8-14.6,4.1-20.3,9.7
			c-4.1,4.1-6.9,9-8.5,14.2c-0.6,2-1,4-1.3,6.1C75.4,495,75.8,494.9,76.3,494.8z"/>
		<path class="st1" d="M76.3,524.8c7-1,13.7-4.2,19-9.6c5.7-5.7,8.9-12.9,9.7-20.3c-7.4,0.8-14.6,4.1-20.3,9.7
			c-4.1,4.1-6.9,9-8.5,14.2c-0.6,2-1,4-1.3,6.1C75.4,525,75.8,524.9,76.3,524.8z"/>
		<path class="st1" d="M73.8,518.9c-1.6-5.2-4.4-10.1-8.5-14.2c-5.7-5.7-12.9-8.9-20.3-9.7c0.8,7.4,4.1,14.6,9.7,20.3
			c5.4,5.3,12.1,8.5,19,9.6c0.4,0.1,0.8,0.1,1.3,0.2C74.8,523,74.3,520.9,73.8,518.9z"/>
		<path class="st1" d="M76.3,554.8c7-1,13.7-4.2,19-9.6c5.7-5.7,8.9-12.9,9.7-20.3c-7.4,0.8-14.6,4.1-20.3,9.7
			c-4.1,4.1-6.9,9-8.5,14.2c-0.6,2-1,4-1.3,6.1C75.4,555,75.8,554.9,76.3,554.8z"/>
		<path class="st1" d="M73.8,548.9c-1.6-5.2-4.4-10.1-8.5-14.2c-5.7-5.7-12.9-8.9-20.3-9.7c0.8,7.4,4.1,14.6,9.7,20.3
			c5.4,5.3,12.1,8.5,19,9.6c0.4,0.1,0.8,0.1,1.3,0.2C74.8,553,74.3,550.9,73.8,548.9z"/>
		<path class="st1" d="M76.3,584.8c7-1,13.7-4.2,19-9.6c5.7-5.7,8.9-12.9,9.7-20.3c-7.4,0.8-14.6,4.1-20.3,9.7
			c-4.1,4.1-6.9,9-8.5,14.2c-0.6,2-1,4-1.3,6.1C75.4,585,75.8,584.9,76.3,584.8z"/>
		<path class="st1" d="M73.8,578.9c-1.6-5.2-4.4-10.1-8.5-14.2c-5.7-5.7-12.9-8.9-20.3-9.7c0.8,7.4,4.1,14.6,9.7,20.3
			c5.4,5.3,12.1,8.5,19,9.6c0.4,0.1,0.8,0.1,1.3,0.2C74.8,583,74.3,580.9,73.8,578.9z"/>
		<path class="st1" d="M84.7,594.7c-1.6,1.6-3.1,3.4-4.3,5.3h19.1c3-4.6,4.9-9.7,5.4-15C97.6,585.8,90.4,589.1,84.7,594.7z"/>
		<path class="st1" d="M45,585c0.6,5.3,2.4,10.4,5.4,15h19.1c-1.2-1.9-2.7-3.6-4.3-5.3C59.6,589.1,52.4,585.8,45,585z"/>
		<path class="st1" d="M151.3,44.8c7-1,13.6-4.2,19-9.6c5.7-5.7,8.9-12.9,9.7-20.3c-7.4,0.8-14.6,4.1-20.3,9.7
			c-4.1,4.1-6.9,9-8.5,14.2c-0.6,2-1,4-1.3,6.1C150.4,44.9,150.8,44.9,151.3,44.8z"/>
		<path class="st1" d="M148.8,38.9c-1.6-5.2-4.4-10.1-8.5-14.2c-5.7-5.7-12.9-8.9-20.3-9.7c0.8,7.4,4.1,14.6,9.7,20.3
			c5.4,5.3,12.1,8.5,19,9.6c0.4,0.1,0.8,0.1,1.3,0.2C149.8,42.9,149.4,40.9,148.8,38.9z"/>
		<path class="st1" d="M151.3,74.8c7-1,13.6-4.2,19-9.6c5.7-5.7,8.9-12.9,9.7-20.3c-7.4,0.8-14.6,4.1-20.3,9.7
			c-4.1,4.1-6.9,9-8.5,14.2c-0.6,2-1,4-1.3,6.1C150.4,74.9,150.8,74.9,151.3,74.8z"/>
		<path class="st1" d="M151.3,104.8c7-1,13.6-4.2,19-9.6c5.7-5.7,8.9-12.9,9.7-20.3c-7.4,0.8-14.6,4.1-20.3,9.7
			c-4.1,4.1-6.9,9-8.5,14.2c-0.6,2-1,4-1.3,6.1C150.4,104.9,150.8,104.9,151.3,104.8z"/>
		<path class="st1" d="M148.8,98.9c-1.6-5.2-4.4-10.1-8.5-14.2c-5.7-5.7-12.9-8.9-20.3-9.7c0.8,7.4,4.1,14.6,9.7,20.3
			c5.4,5.4,12.1,8.5,19,9.6c0.4,0.1,0.8,0.1,1.3,0.2C149.8,102.9,149.4,100.9,148.8,98.9z"/>
		<path class="st1" d="M151.3,134.8c7-1,13.6-4.2,19-9.6c5.7-5.7,8.9-12.9,9.7-20.3c-7.4,0.8-14.6,4.1-20.3,9.7
			c-4.1,4.1-6.9,9-8.5,14.2c-0.6,2-1,4-1.3,6.1C150.4,134.9,150.8,134.9,151.3,134.8z"/>
		<path class="st1" d="M148.8,128.9c-1.6-5.2-4.4-10.1-8.5-14.2c-5.7-5.7-12.9-8.9-20.3-9.7c0.8,7.4,4.1,14.6,9.7,20.3
			c5.4,5.4,12.1,8.5,19,9.6c0.4,0.1,0.8,0.1,1.3,0.2C149.8,132.9,149.4,130.9,148.8,128.9z"/>
		<path class="st1" d="M151.3,164.8c7-1,13.6-4.2,19-9.6c5.7-5.7,8.9-12.9,9.7-20.3c-7.4,0.8-14.6,4.1-20.3,9.7
			c-4.1,4.1-6.9,9-8.5,14.2c-0.6,2-1,4-1.3,6.1C150.4,164.9,150.8,164.9,151.3,164.8z"/>
		<path class="st1" d="M148.8,158.9c-1.6-5.2-4.4-10.1-8.5-14.2c-5.7-5.7-12.9-8.9-20.3-9.7c0.8,7.4,4.1,14.6,9.7,20.3
			c5.4,5.4,12.1,8.5,19,9.6c0.4,0.1,0.8,0.1,1.3,0.2C149.8,162.9,149.4,160.9,148.8,158.9z"/>
		<path class="st1" d="M151.3,194.8c7-1,13.6-4.2,19-9.6c5.7-5.7,8.9-12.9,9.7-20.3c-7.4,0.8-14.6,4.1-20.3,9.7
			c-4.1,4.1-6.9,9-8.5,14.2c-0.6,2-1,4-1.3,6.1C150.4,194.9,150.8,194.9,151.3,194.8z"/>
		<path class="st1" d="M148.8,188.9c-1.6-5.2-4.4-10.1-8.5-14.2c-5.7-5.7-12.9-8.9-20.3-9.7c0.8,7.4,4.1,14.6,9.7,20.3
			c5.4,5.4,12.1,8.5,19,9.6c0.4,0.1,0.8,0.1,1.3,0.2C149.8,192.9,149.4,190.9,148.8,188.9z"/>
		<path class="st1" d="M151.3,224.8c7-1,13.6-4.2,19-9.6c5.7-5.7,8.9-12.9,9.7-20.3c-7.4,0.8-14.6,4.1-20.3,9.7
			c-4.1,4.1-6.9,9-8.5,14.2c-0.6,2-1,4-1.3,6.1C150.4,224.9,150.8,224.9,151.3,224.8z"/>
		<path class="st1" d="M148.8,218.9c-1.6-5.2-4.4-10.1-8.5-14.2c-5.7-5.7-12.9-8.9-20.3-9.7c0.8,7.4,4.1,14.6,9.7,20.3
			c5.4,5.4,12.1,8.5,19,9.6c0.4,0.1,0.8,0.1,1.3,0.2C149.8,222.9,149.4,220.9,148.8,218.9z"/>
		<path class="st1" d="M151.3,254.8c7-1,13.6-4.2,19-9.6c5.7-5.7,8.9-12.9,9.7-20.3c-7.4,0.8-14.6,4.1-20.3,9.7
			c-4.1,4.1-6.9,9-8.5,14.2c-0.6,2-1,4-1.3,6.1C150.4,254.9,150.8,254.9,151.3,254.8z"/>
		<path class="st1" d="M148.8,248.9c-1.6-5.2-4.4-10.1-8.5-14.2c-5.7-5.7-12.9-8.9-20.3-9.7c0.8,7.4,4.1,14.6,9.7,20.3
			c5.4,5.4,12.1,8.5,19,9.6c0.4,0.1,0.8,0.1,1.3,0.2C149.8,252.9,149.4,250.9,148.8,248.9z"/>
		<path class="st1" d="M151.3,284.8c7-1,13.6-4.2,19-9.6c5.7-5.7,8.9-12.9,9.7-20.3c-7.4,0.8-14.6,4.1-20.3,9.7
			c-4.1,4.1-6.9,9-8.5,14.2c-0.6,2-1,4-1.3,6.1C150.4,285,150.8,284.9,151.3,284.8z"/>
		<path class="st1" d="M148.8,278.9c-1.6-5.2-4.4-10.1-8.5-14.2c-5.7-5.7-12.9-8.9-20.3-9.7c0.8,7.4,4.1,14.6,9.7,20.3
			c5.4,5.4,12.1,8.5,19,9.6c0.4,0.1,0.8,0.1,1.3,0.2C149.8,283,149.4,280.9,148.8,278.9z"/>
		<path class="st1" d="M151.3,314.8c7-1,13.6-4.2,19-9.6c5.7-5.7,8.9-12.9,9.7-20.3c-7.4,0.8-14.6,4.1-20.3,9.7
			c-4.1,4.1-6.9,9-8.5,14.2c-0.6,2-1,4-1.3,6.1C150.4,315,150.8,314.9,151.3,314.8z"/>
		<path class="st1" d="M148.8,308.9c-1.6-5.2-4.4-10.1-8.5-14.2c-5.7-5.7-12.9-8.9-20.3-9.7c0.8,7.4,4.1,14.6,9.7,20.3
			c5.4,5.4,12.1,8.5,19,9.6c0.4,0.1,0.8,0.1,1.3,0.2C149.8,313,149.4,310.9,148.8,308.9z"/>
		<path class="st1" d="M148.8,338.9c-1.6-5.2-4.4-10.1-8.5-14.2c-5.7-5.7-12.9-8.9-20.3-9.7c0.8,7.4,4.1,14.6,9.7,20.3
			c5.4,5.4,12.1,8.5,19,9.6c0.4,0.1,0.8,0.1,1.3,0.2C149.8,343,149.4,340.9,148.8,338.9z"/>
		<path class="st1" d="M151.3,374.8c7-1,13.6-4.2,19-9.6c5.7-5.7,8.9-12.9,9.7-20.3c-7.4,0.8-14.6,4.1-20.3,9.7
			c-4.1,4.1-6.9,9-8.5,14.2c-0.6,2-1,4-1.3,6.1C150.4,375,150.8,374.9,151.3,374.8z"/>
		<path class="st1" d="M148.8,368.9c-1.6-5.2-4.4-10.1-8.5-14.2c-5.7-5.7-12.9-8.9-20.3-9.7c0.8,7.4,4.1,14.6,9.7,20.3
			c5.4,5.4,12.1,8.5,19,9.6c0.4,0.1,0.8,0.1,1.3,0.2C149.8,373,149.4,370.9,148.8,368.9z"/>
		<path class="st1" d="M151.3,404.8c7-1,13.6-4.2,19-9.6c5.7-5.7,8.9-12.9,9.7-20.3c-7.4,0.8-14.6,4.1-20.3,9.7
			c-4.1,4.1-6.9,9-8.5,14.2c-0.6,2-1,4-1.3,6.1C150.4,405,150.8,404.9,151.3,404.8z"/>
		<path class="st1" d="M148.8,398.9c-1.6-5.2-4.4-10.1-8.5-14.2c-5.7-5.7-12.9-8.9-20.3-9.7c0.8,7.4,4.1,14.6,9.7,20.3
			c5.4,5.4,12.1,8.5,19,9.6c0.4,0.1,0.8,0.1,1.3,0.2C149.8,403,149.4,400.9,148.8,398.9z"/>
		<path class="st1" d="M151.3,434.8c7-1,13.6-4.2,19-9.6c5.7-5.7,8.9-12.9,9.7-20.3c-7.4,0.8-14.6,4.1-20.3,9.7
			c-4.1,4.1-6.9,9-8.5,14.2c-0.6,2-1,4-1.3,6.1C150.4,435,150.8,434.9,151.3,434.8z"/>
		<path class="st1" d="M148.8,428.9c-1.6-5.2-4.4-10.1-8.5-14.2c-5.7-5.7-12.9-8.9-20.3-9.7c0.8,7.4,4.1,14.6,9.7,20.3
			c5.4,5.4,12.1,8.5,19,9.6c0.4,0.1,0.8,0.1,1.3,0.2C149.8,433,149.4,430.9,148.8,428.9z"/>
		<path class="st1" d="M151.3,464.8c7-1,13.6-4.2,19-9.6c5.7-5.7,8.9-12.9,9.7-20.3c-7.4,0.8-14.6,4.1-20.3,9.7
			c-4.1,4.1-6.9,9-8.5,14.2c-0.6,2-1,4-1.3,6.1C150.4,465,150.8,464.9,151.3,464.8z"/>
		<path class="st1" d="M148.8,458.9c-1.6-5.2-4.4-10.1-8.5-14.2c-5.7-5.7-12.9-8.9-20.3-9.7c0.8,7.4,4.1,14.6,9.7,20.3
			c5.4,5.4,12.1,8.5,19,9.6c0.4,0.1,0.8,0.1,1.3,0.2C149.8,463,149.4,460.9,148.8,458.9z"/>
		<path class="st1" d="M151.3,494.8c7-1,13.6-4.2,19-9.6c5.7-5.7,8.9-12.9,9.7-20.3c-7.4,0.8-14.6,4.1-20.3,9.7
			c-4.1,4.1-6.9,9-8.5,14.2c-0.6,2-1,4-1.3,6.1C150.4,495,150.8,494.9,151.3,494.8z"/>
		<path class="st1" d="M148.8,488.9c-1.6-5.2-4.4-10.1-8.5-14.2c-5.7-5.7-12.9-8.9-20.3-9.7c0.8,7.4,4.1,14.6,9.7,20.3
			c5.4,5.4,12.1,8.5,19,9.6c0.4,0.1,0.8,0.1,1.3,0.2C149.8,493,149.4,490.9,148.8,488.9z"/>
		<path class="st1" d="M151.3,524.8c7-1,13.6-4.2,19-9.6c5.7-5.7,8.9-12.9,9.7-20.3c-7.4,0.8-14.6,4.1-20.3,9.7
			c-4.1,4.1-6.9,9-8.5,14.2c-0.6,2-1,4-1.3,6.1C150.4,525,150.8,524.9,151.3,524.8z"/>
		<path class="st1" d="M148.8,518.9c-1.6-5.2-4.4-10.1-8.5-14.2c-5.7-5.7-12.9-8.9-20.3-9.7c0.8,7.4,4.1,14.6,9.7,20.3
			c5.4,5.3,12.1,8.5,19,9.6c0.4,0.1,0.8,0.1,1.3,0.2C149.8,523,149.4,520.9,148.8,518.9z"/>
		<path class="st1" d="M151.3,554.8c7-1,13.6-4.2,19-9.6c5.7-5.7,8.9-12.9,9.7-20.3c-7.4,0.8-14.6,4.1-20.3,9.7
			c-4.1,4.1-6.9,9-8.5,14.2c-0.6,2-1,4-1.3,6.1C150.4,555,150.8,554.9,151.3,554.8z"/>
		<path class="st1" d="M148.8,548.9c-1.6-5.2-4.4-10.1-8.5-14.2c-5.7-5.7-12.9-8.9-20.3-9.7c0.8,7.4,4.1,14.6,9.7,20.3
			c5.4,5.3,12.1,8.5,19,9.6c0.4,0.1,0.8,0.1,1.3,0.2C149.8,553,149.4,550.9,148.8,548.9z"/>
		<path class="st1" d="M151.3,584.8c7-1,13.6-4.2,19-9.6c5.7-5.7,8.9-12.9,9.7-20.3c-7.4,0.8-14.6,4.1-20.3,9.7
			c-4.1,4.1-6.9,9-8.5,14.2c-0.6,2-1,4-1.3,6.1C150.4,585,150.8,584.9,151.3,584.8z"/>
		<path class="st1" d="M148.8,578.9c-1.6-5.2-4.4-10.1-8.5-14.2c-5.7-5.7-12.9-8.9-20.3-9.7c0.8,7.4,4.1,14.6,9.7,20.3
			c5.4,5.3,12.1,8.5,19,9.6c0.4,0.1,0.8,0.1,1.3,0.2C149.8,583,149.4,580.9,148.8,578.9z"/>
		<path class="st1" d="M159.7,594.7c-1.6,1.6-3.1,3.4-4.3,5.3h19.1c3-4.6,4.9-9.7,5.4-15C172.6,585.8,165.4,589.1,159.7,594.7z"/>
		<path class="st1" d="M120,585c0.6,5.3,2.4,10.4,5.4,15h19.1c-1.2-1.9-2.7-3.6-4.3-5.3C134.6,589.1,127.4,585.8,120,585z"/>
		<path class="st1" d="M226.3,44.8c7-1,13.6-4.2,19-9.6c5.7-5.7,8.9-12.9,9.7-20.3c-7.4,0.8-14.6,4.1-20.3,9.7
			c-4.1,4.1-6.9,9-8.5,14.2c-0.6,2-1,4-1.3,6.1C225.4,44.9,225.8,44.9,226.3,44.8z"/>
		<path class="st1" d="M223.8,38.9c-1.6-5.2-4.4-10.1-8.5-14.2c-5.7-5.7-12.9-8.9-20.3-9.7c0.8,7.4,4.1,14.6,9.7,20.3
			c5.4,5.3,12.1,8.5,19,9.6c0.4,0.1,0.8,0.1,1.3,0.2C224.8,42.9,224.4,40.9,223.8,38.9z"/>
		<path class="st1" d="M226.3,74.8c7-1,13.6-4.2,19-9.6c5.7-5.7,8.9-12.9,9.7-20.3c-7.4,0.8-14.6,4.1-20.3,9.7
			c-4.1,4.1-6.9,9-8.5,14.2c-0.6,2-1,4-1.3,6.1C225.4,74.9,225.8,74.9,226.3,74.8z"/>
		<path class="st1" d="M223.8,68.9c-1.6-5.2-4.4-10.1-8.5-14.2c-5.7-5.7-12.9-8.9-20.3-9.7c0.8,7.4,4.1,14.6,9.7,20.3
			c5.4,5.4,12.1,8.5,19,9.6c0.4,0.1,0.8,0.1,1.3,0.2C224.8,72.9,224.4,70.9,223.8,68.9z"/>
		<path class="st1" d="M226.3,104.8c7-1,13.6-4.2,19-9.6c5.7-5.7,8.9-12.9,9.7-20.3c-7.4,0.8-14.6,4.1-20.3,9.7
			c-4.1,4.1-6.9,9-8.5,14.2c-0.6,2-1,4-1.3,6.1C225.4,104.9,225.8,104.9,226.3,104.8z"/>
		<path class="st1" d="M226.3,134.8c7-1,13.6-4.2,19-9.6c5.7-5.7,8.9-12.9,9.7-20.3c-7.4,0.8-14.6,4.1-20.3,9.7
			c-4.1,4.1-6.9,9-8.5,14.2c-0.6,2-1,4-1.3,6.1C225.4,134.9,225.8,134.9,226.3,134.8z"/>
		<path class="st1" d="M223.8,128.9c-1.6-5.2-4.4-10.1-8.5-14.2c-5.7-5.7-12.9-8.9-20.3-9.7c0.8,7.4,4.1,14.6,9.7,20.3
			c5.4,5.4,12.1,8.5,19,9.6c0.4,0.1,0.8,0.1,1.3,0.2C224.8,132.9,224.4,130.9,223.8,128.9z"/>
		<path class="st1" d="M226.3,164.8c7-1,13.6-4.2,19-9.6c5.7-5.7,8.9-12.9,9.7-20.3c-7.4,0.8-14.6,4.1-20.3,9.7
			c-4.1,4.1-6.9,9-8.5,14.2c-0.6,2-1,4-1.3,6.1C225.4,164.9,225.8,164.9,226.3,164.8z"/>
		<path class="st1" d="M223.8,158.9c-1.6-5.2-4.4-10.1-8.5-14.2c-5.7-5.7-12.9-8.9-20.3-9.7c0.8,7.4,4.1,14.6,9.7,20.3
			c5.4,5.4,12.1,8.5,19,9.6c0.4,0.1,0.8,0.1,1.3,0.2C224.8,162.9,224.4,160.9,223.8,158.9z"/>
		<path class="st1" d="M226.3,194.8c7-1,13.6-4.2,19-9.6c5.7-5.7,8.9-12.9,9.7-20.3c-7.4,0.8-14.6,4.1-20.3,9.7
			c-4.1,4.1-6.9,9-8.5,14.2c-0.6,2-1,4-1.3,6.1C225.4,194.9,225.8,194.9,226.3,194.8z"/>
		<path class="st1" d="M223.8,188.9c-1.6-5.2-4.4-10.1-8.5-14.2c-5.7-5.7-12.9-8.9-20.3-9.7c0.8,7.4,4.1,14.6,9.7,20.3
			c5.4,5.4,12.1,8.5,19,9.6c0.4,0.1,0.8,0.1,1.3,0.2C224.8,192.9,224.4,190.9,223.8,188.9z"/>
		<path class="st1" d="M226.3,224.8c7-1,13.6-4.2,19-9.6c5.7-5.7,8.9-12.9,9.7-20.3c-7.4,0.8-14.6,4.1-20.3,9.7
			c-4.1,4.1-6.9,9-8.5,14.2c-0.6,2-1,4-1.3,6.1C225.4,224.9,225.8,224.9,226.3,224.8z"/>
		<path class="st1" d="M226.3,254.8c7-1,13.6-4.2,19-9.6c5.7-5.7,8.9-12.9,9.7-20.3c-7.4,0.8-14.6,4.1-20.3,9.7
			c-4.1,4.1-6.9,9-8.5,14.2c-0.6,2-1,4-1.3,6.1C225.4,254.9,225.8,254.9,226.3,254.8z"/>
		<path class="st1" d="M223.8,248.9c-1.6-5.2-4.4-10.1-8.5-14.2c-5.7-5.7-12.9-8.9-20.3-9.7c0.8,7.4,4.1,14.6,9.7,20.3
			c5.4,5.4,12.1,8.5,19,9.6c0.4,0.1,0.8,0.1,1.3,0.2C224.8,252.9,224.4,250.9,223.8,248.9z"/>
		<path class="st1" d="M226.3,284.8c7-1,13.6-4.2,19-9.6c5.7-5.7,8.9-12.9,9.7-20.3c-7.4,0.8-14.6,4.1-20.3,9.7
			c-4.1,4.1-6.9,9-8.5,14.2c-0.6,2-1,4-1.3,6.1C225.4,285,225.8,284.9,226.3,284.8z"/>
		<path class="st1" d="M223.8,278.9c-1.6-5.2-4.4-10.1-8.5-14.2c-5.7-5.7-12.9-8.9-20.3-9.7c0.8,7.4,4.1,14.6,9.7,20.3
			c5.4,5.4,12.1,8.5,19,9.6c0.4,0.1,0.8,0.1,1.3,0.2C224.8,283,224.4,280.9,223.8,278.9z"/>
		<path class="st1" d="M226.3,314.8c7-1,13.6-4.2,19-9.6c5.7-5.7,8.9-12.9,9.7-20.3c-7.4,0.8-14.6,4.1-20.3,9.7
			c-4.1,4.1-6.9,9-8.5,14.2c-0.6,2-1,4-1.3,6.1C225.4,315,225.8,314.9,226.3,314.8z"/>
		<path class="st1" d="M223.8,308.9c-1.6-5.2-4.4-10.1-8.5-14.2c-5.7-5.7-12.9-8.9-20.3-9.7c0.8,7.4,4.1,14.6,9.7,20.3
			c5.4,5.4,12.1,8.5,19,9.6c0.4,0.1,0.8,0.1,1.3,0.2C224.8,313,224.4,310.9,223.8,308.9z"/>
		<path class="st1" d="M226.3,344.8c7-1,13.6-4.2,19-9.6c5.7-5.7,8.9-12.9,9.7-20.3c-7.4,0.8-14.6,4.1-20.3,9.7
			c-4.1,4.1-6.9,9-8.5,14.2c-0.6,2-1,4-1.3,6.1C225.4,345,225.8,344.9,226.3,344.8z"/>
		<path class="st1" d="M223.8,338.9c-1.6-5.2-4.4-10.1-8.5-14.2c-5.7-5.7-12.9-8.9-20.3-9.7c0.8,7.4,4.1,14.6,9.7,20.3
			c5.4,5.4,12.1,8.5,19,9.6c0.4,0.1,0.8,0.1,1.3,0.2C224.8,343,224.4,340.9,223.8,338.9z"/>
		<path class="st1" d="M226.3,374.8c7-1,13.6-4.2,19-9.6c5.7-5.7,8.9-12.9,9.7-20.3c-7.4,0.8-14.6,4.1-20.3,9.7
			c-4.1,4.1-6.9,9-8.5,14.2c-0.6,2-1,4-1.3,6.1C225.4,375,225.8,374.9,226.3,374.8z"/>
		<path class="st1" d="M223.8,368.9c-1.6-5.2-4.4-10.1-8.5-14.2c-5.7-5.7-12.9-8.9-20.3-9.7c0.8,7.4,4.1,14.6,9.7,20.3
			c5.4,5.4,12.1,8.5,19,9.6c0.4,0.1,0.8,0.1,1.3,0.2C224.8,373,224.4,370.9,223.8,368.9z"/>
		<path class="st1" d="M226.3,404.8c7-1,13.6-4.2,19-9.6c5.7-5.7,8.9-12.9,9.7-20.3c-7.4,0.8-14.6,4.1-20.3,9.7
			c-4.1,4.1-6.9,9-8.5,14.2c-0.6,2-1,4-1.3,6.1C225.4,405,225.8,404.9,226.3,404.8z"/>
		<path class="st1" d="M223.8,398.9c-1.6-5.2-4.4-10.1-8.5-14.2c-5.7-5.7-12.9-8.9-20.3-9.7c0.8,7.4,4.1,14.6,9.7,20.3
			c5.4,5.4,12.1,8.5,19,9.6c0.4,0.1,0.8,0.1,1.3,0.2C224.8,403,224.4,400.9,223.8,398.9z"/>
		<path class="st1" d="M226.3,434.8c7-1,13.6-4.2,19-9.6c5.7-5.7,8.9-12.9,9.7-20.3c-7.4,0.8-14.6,4.1-20.3,9.7
			c-4.1,4.1-6.9,9-8.5,14.2c-0.6,2-1,4-1.3,6.1C225.4,435,225.8,434.9,226.3,434.8z"/>
		<path class="st1" d="M223.8,428.9c-1.6-5.2-4.4-10.1-8.5-14.2c-5.7-5.7-12.9-8.9-20.3-9.7c0.8,7.4,4.1,14.6,9.7,20.3
			c5.4,5.4,12.1,8.5,19,9.6c0.4,0.1,0.8,0.1,1.3,0.2C224.8,433,224.4,430.9,223.8,428.9z"/>
		<path class="st1" d="M226.3,464.8c7-1,13.6-4.2,19-9.6c5.7-5.7,8.9-12.9,9.7-20.3c-7.4,0.8-14.6,4.1-20.3,9.7
			c-4.1,4.1-6.9,9-8.5,14.2c-0.6,2-1,4-1.3,6.1C225.4,465,225.8,464.9,226.3,464.8z"/>
		<path class="st1" d="M223.8,458.9c-1.6-5.2-4.4-10.1-8.5-14.2c-5.7-5.7-12.9-8.9-20.3-9.7c0.8,7.4,4.1,14.6,9.7,20.3
			c5.4,5.4,12.1,8.5,19,9.6c0.4,0.1,0.8,0.1,1.3,0.2C224.8,463,224.4,460.9,223.8,458.9z"/>
		<path class="st1" d="M226.3,494.8c7-1,13.6-4.2,19-9.6c5.7-5.7,8.9-12.9,9.7-20.3c-7.4,0.8-14.6,4.1-20.3,9.7
			c-4.1,4.1-6.9,9-8.5,14.2c-0.6,2-1,4-1.3,6.1C225.4,495,225.8,494.9,226.3,494.8z"/>
		<path class="st1" d="M223.8,488.9c-1.6-5.2-4.4-10.1-8.5-14.2c-5.7-5.7-12.9-8.9-20.3-9.7c0.8,7.4,4.1,14.6,9.7,20.3
			c5.4,5.4,12.1,8.5,19,9.6c0.4,0.1,0.8,0.1,1.3,0.2C224.8,493,224.4,490.9,223.8,488.9z"/>
		<path class="st1" d="M223.8,518.9c-1.6-5.2-4.4-10.1-8.5-14.2c-5.7-5.7-12.9-8.9-20.3-9.7c0.8,7.4,4.1,14.6,9.7,20.3
			c5.4,5.3,12.1,8.5,19,9.6c0.4,0.1,0.8,0.1,1.3,0.2C224.8,523,224.4,520.9,223.8,518.9z"/>
		<path class="st1" d="M226.3,554.8c7-1,13.6-4.2,19-9.6c5.7-5.7,8.9-12.9,9.7-20.3c-7.4,0.8-14.6,4.1-20.3,9.7
			c-4.1,4.1-6.9,9-8.5,14.2c-0.6,2-1,4-1.3,6.1C225.4,555,225.8,554.9,226.3,554.8z"/>
		<path class="st1" d="M223.8,548.9c-1.6-5.2-4.4-10.1-8.5-14.2c-5.7-5.7-12.9-8.9-20.3-9.7c0.8,7.4,4.1,14.6,9.7,20.3
			c5.4,5.3,12.1,8.5,19,9.6c0.4,0.1,0.8,0.1,1.3,0.2C224.8,553,224.4,550.9,223.8,548.9z"/>
		<path class="st1" d="M226.3,584.8c7-1,13.6-4.2,19-9.6c5.7-5.7,8.9-12.9,9.7-20.3c-7.4,0.8-14.6,4.1-20.3,9.7
			c-4.1,4.1-6.9,9-8.5,14.2c-0.6,2-1,4-1.3,6.1C225.4,585,225.8,584.9,226.3,584.8z"/>
		<path class="st1" d="M223.8,578.9c-1.6-5.2-4.4-10.1-8.5-14.2c-5.7-5.7-12.9-8.9-20.3-9.7c0.8,7.4,4.1,14.6,9.7,20.3
			c5.4,5.3,12.1,8.5,19,9.6c0.4,0.1,0.8,0.1,1.3,0.2C224.8,583,224.4,580.9,223.8,578.9z"/>
		<path class="st1" d="M234.7,594.7c-1.6,1.6-3.1,3.4-4.3,5.3h19.1c3-4.6,4.9-9.7,5.4-15C247.6,585.8,240.4,589.1,234.7,594.7z"/>
		<path class="st1" d="M195,585c0.6,5.3,2.4,10.4,5.4,15h19.1c-1.2-1.9-2.7-3.6-4.3-5.3C209.6,589.1,202.4,585.8,195,585z"/>
		<path class="st1" d="M301.3,44.8c7-1,13.6-4.2,19-9.6c5.7-5.7,8.9-12.9,9.7-20.3c-7.4,0.8-14.6,4.1-20.3,9.7
			c-4.1,4.1-6.9,9-8.5,14.2c-0.6,2-1,4-1.3,6.1C300.4,44.9,300.8,44.9,301.3,44.8z"/>
		<path class="st1" d="M298.8,38.9c-1.6-5.2-4.4-10.1-8.5-14.2c-5.7-5.7-12.9-8.9-20.3-9.7c0.8,7.4,4.1,14.6,9.7,20.3
			c5.4,5.3,12,8.5,19,9.6c0.4,0.1,0.8,0.1,1.3,0.2C299.8,42.9,299.4,40.9,298.8,38.9z"/>
		<path class="st1" d="M298.8,68.9c-1.6-5.2-4.4-10.1-8.5-14.2c-5.7-5.7-12.9-8.9-20.3-9.7c0.8,7.4,4.1,14.6,9.7,20.3
			c5.4,5.4,12,8.5,19,9.6c0.4,0.1,0.8,0.1,1.3,0.2C299.8,72.9,299.4,70.9,298.8,68.9z"/>
		<path class="st1" d="M301.3,104.8c7-1,13.6-4.2,19-9.6c5.7-5.7,8.9-12.9,9.7-20.3c-7.4,0.8-14.6,4.1-20.3,9.7
			c-4.1,4.1-6.9,9-8.5,14.2c-0.6,2-1,4-1.3,6.1C300.4,104.9,300.8,104.9,301.3,104.8z"/>
		<path class="st1" d="M298.8,98.9c-1.6-5.2-4.4-10.1-8.5-14.2c-5.7-5.7-12.9-8.9-20.3-9.7c0.8,7.4,4.1,14.6,9.7,20.3
			c5.4,5.4,12,8.5,19,9.6c0.4,0.1,0.8,0.1,1.3,0.2C299.8,102.9,299.4,100.9,298.8,98.9z"/>
		<path class="st1" d="M301.3,134.8c7-1,13.6-4.2,19-9.6c5.7-5.7,8.9-12.9,9.7-20.3c-7.4,0.8-14.6,4.1-20.3,9.7
			c-4.1,4.1-6.9,9-8.5,14.2c-0.6,2-1,4-1.3,6.1C300.4,134.9,300.8,134.9,301.3,134.8z"/>
		<path class="st1" d="M298.8,128.9c-1.6-5.2-4.4-10.1-8.5-14.2c-5.7-5.7-12.9-8.9-20.3-9.7c0.8,7.4,4.1,14.6,9.7,20.3
			c5.4,5.4,12,8.5,19,9.6c0.4,0.1,0.8,0.1,1.3,0.2C299.8,132.9,299.4,130.9,298.8,128.9z"/>
		<path class="st1" d="M301.3,164.8c7-1,13.6-4.2,19-9.6c5.7-5.7,8.9-12.9,9.7-20.3c-7.4,0.8-14.6,4.1-20.3,9.7
			c-4.1,4.1-6.9,9-8.5,14.2c-0.6,2-1,4-1.3,6.1C300.4,164.9,300.8,164.9,301.3,164.8z"/>
		<path class="st1" d="M298.8,158.9c-1.6-5.2-4.4-10.1-8.5-14.2c-5.7-5.7-12.9-8.9-20.3-9.7c0.8,7.4,4.1,14.6,9.7,20.3
			c5.4,5.4,12,8.5,19,9.6c0.4,0.1,0.8,0.1,1.3,0.2C299.8,162.9,299.4,160.9,298.8,158.9z"/>
		<path class="st1" d="M301.3,194.8c7-1,13.6-4.2,19-9.6c5.7-5.7,8.9-12.9,9.7-20.3c-7.4,0.8-14.6,4.1-20.3,9.7
			c-4.1,4.1-6.9,9-8.5,14.2c-0.6,2-1,4-1.3,6.1C300.4,194.9,300.8,194.9,301.3,194.8z"/>
		<path class="st1" d="M298.8,188.9c-1.6-5.2-4.4-10.1-8.5-14.2c-5.7-5.7-12.9-8.9-20.3-9.7c0.8,7.4,4.1,14.6,9.7,20.3
			c5.4,5.4,12,8.5,19,9.6c0.4,0.1,0.8,0.1,1.3,0.2C299.8,192.9,299.4,190.9,298.8,188.9z"/>
		<path class="st1" d="M301.3,224.8c7-1,13.6-4.2,19-9.6c5.7-5.7,8.9-12.9,9.7-20.3c-7.4,0.8-14.6,4.1-20.3,9.7
			c-4.1,4.1-6.9,9-8.5,14.2c-0.6,2-1,4-1.3,6.1C300.4,224.9,300.8,224.9,301.3,224.8z"/>
		<path class="st1" d="M298.8,218.9c-1.6-5.2-4.4-10.1-8.5-14.2c-5.7-5.7-12.9-8.9-20.3-9.7c0.8,7.4,4.1,14.6,9.7,20.3
			c5.4,5.4,12,8.5,19,9.6c0.4,0.1,0.8,0.1,1.3,0.2C299.8,222.9,299.4,220.9,298.8,218.9z"/>
		<path class="st1" d="M301.3,254.8c7-1,13.6-4.2,19-9.6c5.7-5.7,8.9-12.9,9.7-20.3c-7.4,0.8-14.6,4.1-20.3,9.7
			c-4.1,4.1-6.9,9-8.5,14.2c-0.6,2-1,4-1.3,6.1C300.4,254.9,300.8,254.9,301.3,254.8z"/>
		<path class="st1" d="M298.8,248.9c-1.6-5.2-4.4-10.1-8.5-14.2c-5.7-5.7-12.9-8.9-20.3-9.7c0.8,7.4,4.1,14.6,9.7,20.3
			c5.4,5.4,12,8.5,19,9.6c0.4,0.1,0.8,0.1,1.3,0.2C299.8,252.9,299.4,250.9,298.8,248.9z"/>
		<path class="st1" d="M301.3,284.8c7-1,13.6-4.2,19-9.6c5.7-5.7,8.9-12.9,9.7-20.3c-7.4,0.8-14.6,4.1-20.3,9.7
			c-4.1,4.1-6.9,9-8.5,14.2c-0.6,2-1,4-1.3,6.1C300.4,285,300.8,284.9,301.3,284.8z"/>
		<path class="st1" d="M298.8,278.9c-1.6-5.2-4.4-10.1-8.5-14.2c-5.7-5.7-12.9-8.9-20.3-9.7c0.8,7.4,4.1,14.6,9.7,20.3
			c5.4,5.4,12,8.5,19,9.6c0.4,0.1,0.8,0.1,1.3,0.2C299.8,283,299.4,280.9,298.8,278.9z"/>
		<path class="st1" d="M298.8,308.9c-1.6-5.2-4.4-10.1-8.5-14.2c-5.7-5.7-12.9-8.9-20.3-9.7c0.8,7.4,4.1,14.6,9.7,20.3
			c5.4,5.4,12,8.5,19,9.6c0.4,0.1,0.8,0.1,1.3,0.2C299.8,313,299.4,310.9,298.8,308.9z"/>
		<path class="st1" d="M301.3,344.8c7-1,13.6-4.2,19-9.6c5.7-5.7,8.9-12.9,9.7-20.3c-7.4,0.8-14.6,4.1-20.3,9.7
			c-4.1,4.1-6.9,9-8.5,14.2c-0.6,2-1,4-1.3,6.1C300.4,345,300.8,344.9,301.3,344.8z"/>
		<path class="st1" d="M298.8,338.9c-1.6-5.2-4.4-10.1-8.5-14.2c-5.7-5.7-12.9-8.9-20.3-9.7c0.8,7.4,4.1,14.6,9.7,20.3
			c5.4,5.4,12,8.5,19,9.6c0.4,0.1,0.8,0.1,1.3,0.2C299.8,343,299.4,340.9,298.8,338.9z"/>
		<path class="st1" d="M301.3,374.8c7-1,13.6-4.2,19-9.6c5.7-5.7,8.9-12.9,9.7-20.3c-7.4,0.8-14.6,4.1-20.3,9.7
			c-4.1,4.1-6.9,9-8.5,14.2c-0.6,2-1,4-1.3,6.1C300.4,375,300.8,374.9,301.3,374.8z"/>
		<path class="st1" d="M298.8,368.9c-1.6-5.2-4.4-10.1-8.5-14.2c-5.7-5.7-12.9-8.9-20.3-9.7c0.8,7.4,4.1,14.6,9.7,20.3
			c5.4,5.4,12,8.5,19,9.6c0.4,0.1,0.8,0.1,1.3,0.2C299.8,373,299.4,370.9,298.8,368.9z"/>
		<path class="st1" d="M301.3,404.8c7-1,13.6-4.2,19-9.6c5.7-5.7,8.9-12.9,9.7-20.3c-7.4,0.8-14.6,4.1-20.3,9.7
			c-4.1,4.1-6.9,9-8.5,14.2c-0.6,2-1,4-1.3,6.1C300.4,405,300.8,404.9,301.3,404.8z"/>
		<path class="st1" d="M298.8,398.9c-1.6-5.2-4.4-10.1-8.5-14.2c-5.7-5.7-12.9-8.9-20.3-9.7c0.8,7.4,4.1,14.6,9.7,20.3
			c5.4,5.4,12,8.5,19,9.6c0.4,0.1,0.8,0.1,1.3,0.2C299.8,403,299.4,400.9,298.8,398.9z"/>
		<path class="st1" d="M301.3,434.8c7-1,13.6-4.2,19-9.6c5.7-5.7,8.9-12.9,9.7-20.3c-7.4,0.8-14.6,4.1-20.3,9.7
			c-4.1,4.1-6.9,9-8.5,14.2c-0.6,2-1,4-1.3,6.1C300.4,435,300.8,434.9,301.3,434.8z"/>
		<path class="st1" d="M298.8,428.9c-1.6-5.2-4.4-10.1-8.5-14.2c-5.7-5.7-12.9-8.9-20.3-9.7c0.8,7.4,4.1,14.6,9.7,20.3
			c5.4,5.4,12,8.5,19,9.6c0.4,0.1,0.8,0.1,1.3,0.2C299.8,433,299.4,430.9,298.8,428.9z"/>
		<path class="st1" d="M301.3,464.8c7-1,13.6-4.2,19-9.6c5.7-5.7,8.9-12.9,9.7-20.3c-7.4,0.8-14.6,4.1-20.3,9.7
			c-4.1,4.1-6.9,9-8.5,14.2c-0.6,2-1,4-1.3,6.1C300.4,465,300.8,464.9,301.3,464.8z"/>
		<path class="st1" d="M298.8,458.9c-1.6-5.2-4.4-10.1-8.5-14.2c-5.7-5.7-12.9-8.9-20.3-9.7c0.8,7.4,4.1,14.6,9.7,20.3
			c5.4,5.4,12,8.5,19,9.6c0.4,0.1,0.8,0.1,1.3,0.2C299.8,463,299.4,460.9,298.8,458.9z"/>
		<path class="st1" d="M301.3,494.8c7-1,13.6-4.2,19-9.6c5.7-5.7,8.9-12.9,9.7-20.3c-7.4,0.8-14.6,4.1-20.3,9.7
			c-4.1,4.1-6.9,9-8.5,14.2c-0.6,2-1,4-1.3,6.1C300.4,495,300.8,494.9,301.3,494.8z"/>
		<path class="st1" d="M298.8,488.9c-1.6-5.2-4.4-10.1-8.5-14.2c-5.7-5.7-12.9-8.9-20.3-9.7c0.8,7.4,4.1,14.6,9.7,20.3
			c5.4,5.4,12,8.5,19,9.6c0.4,0.1,0.8,0.1,1.3,0.2C299.8,493,299.4,490.9,298.8,488.9z"/>
		<path class="st1" d="M301.3,524.8c7-1,13.6-4.2,19-9.6c5.7-5.7,8.9-12.9,9.7-20.3c-7.4,0.8-14.6,4.1-20.3,9.7
			c-4.1,4.1-6.9,9-8.5,14.2c-0.6,2-1,4-1.3,6.1C300.4,525,300.8,524.9,301.3,524.8z"/>
		<path class="st1" d="M298.8,518.9c-1.6-5.2-4.4-10.1-8.5-14.2c-5.7-5.7-12.9-8.9-20.3-9.7c0.8,7.4,4.1,14.6,9.7,20.3
			c5.4,5.3,12,8.5,19,9.6c0.4,0.1,0.8,0.1,1.3,0.2C299.8,523,299.4,520.9,298.8,518.9z"/>
		<path class="st1" d="M301.3,554.8c7-1,13.6-4.2,19-9.6c5.7-5.7,8.9-12.9,9.7-20.3c-7.4,0.8-14.6,4.1-20.3,9.7
			c-4.1,4.1-6.9,9-8.5,14.2c-0.6,2-1,4-1.3,6.1C300.4,555,300.8,554.9,301.3,554.8z"/>
		<path class="st1" d="M298.8,548.9c-1.6-5.2-4.4-10.1-8.5-14.2c-5.7-5.7-12.9-8.9-20.3-9.7c0.8,7.4,4.1,14.6,9.7,20.3
			c5.4,5.3,12,8.5,19,9.6c0.4,0.1,0.8,0.1,1.3,0.2C299.8,553,299.4,550.9,298.8,548.9z"/>
		<path class="st1" d="M301.3,584.8c7-1,13.6-4.2,19-9.6c5.7-5.7,8.9-12.9,9.7-20.3c-7.4,0.8-14.6,4.1-20.3,9.7
			c-4.1,4.1-6.9,9-8.5,14.2c-0.6,2-1,4-1.3,6.1C300.4,585,300.8,584.9,301.3,584.8z"/>
		<path class="st1" d="M298.8,578.9c-1.6-5.2-4.4-10.1-8.5-14.2c-5.7-5.7-12.9-8.9-20.3-9.7c0.8,7.4,4.1,14.6,9.7,20.3
			c5.4,5.3,12,8.5,19,9.6c0.4,0.1,0.8,0.1,1.3,0.2C299.8,583,299.4,580.9,298.8,578.9z"/>
		<path class="st1" d="M309.7,594.7c-1.6,1.6-3.1,3.4-4.3,5.3h19.1c3-4.6,4.9-9.7,5.4-15C322.6,585.8,315.4,589.1,309.7,594.7z"/>
		<path class="st1" d="M270,585c0.6,5.3,2.4,10.4,5.4,15h19.1c-1.2-1.9-2.7-3.6-4.3-5.3C284.6,589.1,277.4,585.8,270,585z"/>
		<path class="st1" d="M376.3,44.8c7-1,13.6-4.2,19-9.6c5.7-5.7,8.9-12.9,9.7-20.3c-7.4,0.8-14.6,4.1-20.3,9.7
			c-4.1,4.1-6.9,9-8.5,14.2c-0.6,2-1,4-1.3,6.1C375.4,44.9,375.8,44.9,376.3,44.8z"/>
		<path class="st1" d="M373.8,38.9c-1.6-5.2-4.4-10.1-8.5-14.2c-5.7-5.7-12.9-8.9-20.3-9.7c0.8,7.4,4.1,14.6,9.7,20.3
			c5.4,5.3,12,8.5,19,9.6c0.4,0.1,0.8,0.1,1.3,0.2C374.8,42.9,374.4,40.9,373.8,38.9z"/>
		<path class="st1" d="M376.3,74.8c7-1,13.6-4.2,19-9.6c5.7-5.7,8.9-12.9,9.7-20.3c-7.4,0.8-14.6,4.1-20.3,9.7
			c-4.1,4.1-6.9,9-8.5,14.2c-0.6,2-1,4-1.3,6.1C375.4,74.9,375.8,74.9,376.3,74.8z"/>
		<path class="st1" d="M373.8,68.9c-1.6-5.2-4.4-10.1-8.5-14.2c-5.7-5.7-12.9-8.9-20.3-9.7c0.8,7.4,4.1,14.6,9.7,20.3
			c5.4,5.4,12,8.5,19,9.6c0.4,0.1,0.8,0.1,1.3,0.2C374.8,72.9,374.4,70.9,373.8,68.9z"/>
		<path class="st1" d="M376.3,104.8c7-1,13.6-4.2,19-9.6c5.7-5.7,8.9-12.9,9.7-20.3c-7.4,0.8-14.6,4.1-20.3,9.7
			c-4.1,4.1-6.9,9-8.5,14.2c-0.6,2-1,4-1.3,6.1C375.4,104.9,375.8,104.9,376.3,104.8z"/>
		<path class="st1" d="M373.8,98.9c-1.6-5.2-4.4-10.1-8.5-14.2c-5.7-5.7-12.9-8.9-20.3-9.7c0.8,7.4,4.1,14.6,9.7,20.3
			c5.4,5.4,12,8.5,19,9.6c0.4,0.1,0.8,0.1,1.3,0.2C374.8,102.9,374.4,100.9,373.8,98.9z"/>
		<path class="st1" d="M376.3,134.8c7-1,13.6-4.2,19-9.6c5.7-5.7,8.9-12.9,9.7-20.3c-7.4,0.8-14.6,4.1-20.3,9.7
			c-4.1,4.1-6.9,9-8.5,14.2c-0.6,2-1,4-1.3,6.1C375.4,134.9,375.8,134.9,376.3,134.8z"/>
		<path class="st1" d="M373.8,128.9c-1.6-5.2-4.4-10.1-8.5-14.2c-5.7-5.7-12.9-8.9-20.3-9.7c0.8,7.4,4.1,14.6,9.7,20.3
			c5.4,5.4,12,8.5,19,9.6c0.4,0.1,0.8,0.1,1.3,0.2C374.8,132.9,374.4,130.9,373.8,128.9z"/>
		<path class="st1" d="M376.3,164.8c7-1,13.6-4.2,19-9.6c5.7-5.7,8.9-12.9,9.7-20.3c-7.4,0.8-14.6,4.1-20.3,9.7
			c-4.1,4.1-6.9,9-8.5,14.2c-0.6,2-1,4-1.3,6.1C375.4,164.9,375.8,164.9,376.3,164.8z"/>
		<path class="st1" d="M373.8,158.9c-1.6-5.2-4.4-10.1-8.5-14.2c-5.7-5.7-12.9-8.9-20.3-9.7c0.8,7.4,4.1,14.6,9.7,20.3
			c5.4,5.4,12,8.5,19,9.6c0.4,0.1,0.8,0.1,1.3,0.2C374.8,162.9,374.4,160.9,373.8,158.9z"/>
		<path class="st1" d="M376.3,194.8c7-1,13.6-4.2,19-9.6c5.7-5.7,8.9-12.9,9.7-20.3c-7.4,0.8-14.6,4.1-20.3,9.7
			c-4.1,4.1-6.9,9-8.5,14.2c-0.6,2-1,4-1.3,6.1C375.4,194.9,375.8,194.9,376.3,194.8z"/>
		<path class="st1" d="M373.8,188.9c-1.6-5.2-4.4-10.1-8.5-14.2c-5.7-5.7-12.9-8.9-20.3-9.7c0.8,7.4,4.1,14.6,9.7,20.3
			c5.4,5.4,12,8.5,19,9.6c0.4,0.1,0.8,0.1,1.3,0.2C374.8,192.9,374.4,190.9,373.8,188.9z"/>
		<path class="st1" d="M376.3,224.8c7-1,13.6-4.2,19-9.6c5.7-5.7,8.9-12.9,9.7-20.3c-7.4,0.8-14.6,4.1-20.3,9.7
			c-4.1,4.1-6.9,9-8.5,14.2c-0.6,2-1,4-1.3,6.1C375.4,224.9,375.8,224.9,376.3,224.8z"/>
		<path class="st1" d="M373.8,218.9c-1.6-5.2-4.4-10.1-8.5-14.2c-5.7-5.7-12.9-8.9-20.3-9.7c0.8,7.4,4.1,14.6,9.7,20.3
			c5.4,5.4,12,8.5,19,9.6c0.4,0.1,0.8,0.1,1.3,0.2C374.8,222.9,374.4,220.9,373.8,218.9z"/>
		<path class="st1" d="M376.3,254.8c7-1,13.6-4.2,19-9.6c5.7-5.7,8.9-12.9,9.7-20.3c-7.4,0.8-14.6,4.1-20.3,9.7
			c-4.1,4.1-6.9,9-8.5,14.2c-0.6,2-1,4-1.3,6.1C375.4,254.9,375.8,254.9,376.3,254.8z"/>
		<path class="st1" d="M373.8,248.9c-1.6-5.2-4.4-10.1-8.5-14.2c-5.7-5.7-12.9-8.9-20.3-9.7c0.8,7.4,4.1,14.6,9.7,20.3
			c5.4,5.4,12,8.5,19,9.6c0.4,0.1,0.8,0.1,1.3,0.2C374.8,252.9,374.4,250.9,373.8,248.9z"/>
		<path class="st1" d="M376.3,284.8c7-1,13.6-4.2,19-9.6c5.7-5.7,8.9-12.9,9.7-20.3c-7.4,0.8-14.6,4.1-20.3,9.7
			c-4.1,4.1-6.9,9-8.5,14.2c-0.6,2-1,4-1.3,6.1C375.4,285,375.8,284.9,376.3,284.8z"/>
		<path class="st1" d="M373.8,278.9c-1.6-5.2-4.4-10.1-8.5-14.2c-5.7-5.7-12.9-8.9-20.3-9.7c0.8,7.4,4.1,14.6,9.7,20.3
			c5.4,5.4,12,8.5,19,9.6c0.4,0.1,0.8,0.1,1.3,0.2C374.8,283,374.4,280.9,373.8,278.9z"/>
		<path class="st1" d="M376.3,314.8c7-1,13.6-4.2,19-9.6c5.7-5.7,8.9-12.9,9.7-20.3c-7.4,0.8-14.6,4.1-20.3,9.7
			c-4.1,4.1-6.9,9-8.5,14.2c-0.6,2-1,4-1.3,6.1C375.4,315,375.8,314.9,376.3,314.8z"/>
		<path class="st1" d="M373.8,308.9c-1.6-5.2-4.4-10.1-8.5-14.2c-5.7-5.7-12.9-8.9-20.3-9.7c0.8,7.4,4.1,14.6,9.7,20.3
			c5.4,5.4,12,8.5,19,9.6c0.4,0.1,0.8,0.1,1.3,0.2C374.8,313,374.4,310.9,373.8,308.9z"/>
		<path class="st1" d="M376.3,344.8c7-1,13.6-4.2,19-9.6c5.7-5.7,8.9-12.9,9.7-20.3c-7.4,0.8-14.6,4.1-20.3,9.7
			c-4.1,4.1-6.9,9-8.5,14.2c-0.6,2-1,4-1.3,6.1C375.4,345,375.8,344.9,376.3,344.8z"/>
		<path class="st1" d="M373.8,338.9c-1.6-5.2-4.4-10.1-8.5-14.2c-5.7-5.7-12.9-8.9-20.3-9.7c0.8,7.4,4.1,14.6,9.7,20.3
			c5.4,5.4,12,8.5,19,9.6c0.4,0.1,0.8,0.1,1.3,0.2C374.8,343,374.4,340.9,373.8,338.9z"/>
		<path class="st1" d="M376.3,374.8c7-1,13.6-4.2,19-9.6c5.7-5.7,8.9-12.9,9.7-20.3c-7.4,0.8-14.6,4.1-20.3,9.7
			c-4.1,4.1-6.9,9-8.5,14.2c-0.6,2-1,4-1.3,6.1C375.4,375,375.8,374.9,376.3,374.8z"/>
		<path class="st1" d="M373.8,368.9c-1.6-5.2-4.4-10.1-8.5-14.2c-5.7-5.7-12.9-8.9-20.3-9.7c0.8,7.4,4.1,14.6,9.7,20.3
			c5.4,5.4,12,8.5,19,9.6c0.4,0.1,0.8,0.1,1.3,0.2C374.8,373,374.4,370.9,373.8,368.9z"/>
		<path class="st1" d="M376.3,404.8c7-1,13.6-4.2,19-9.6c5.7-5.7,8.9-12.9,9.7-20.3c-7.4,0.8-14.6,4.1-20.3,9.7
			c-4.1,4.1-6.9,9-8.5,14.2c-0.6,2-1,4-1.3,6.1C375.4,405,375.8,404.9,376.3,404.8z"/>
		<path class="st1" d="M373.8,398.9c-1.6-5.2-4.4-10.1-8.5-14.2c-5.7-5.7-12.9-8.9-20.3-9.7c0.8,7.4,4.1,14.6,9.7,20.3
			c5.4,5.4,12,8.5,19,9.6c0.4,0.1,0.8,0.1,1.3,0.2C374.8,403,374.4,400.9,373.8,398.9z"/>
		<path class="st1" d="M376.3,434.8c7-1,13.6-4.2,19-9.6c5.7-5.7,8.9-12.9,9.7-20.3c-7.4,0.8-14.6,4.1-20.3,9.7
			c-4.1,4.1-6.9,9-8.5,14.2c-0.6,2-1,4-1.3,6.1C375.4,435,375.8,434.9,376.3,434.8z"/>
		<path class="st1" d="M373.8,428.9c-1.6-5.2-4.4-10.1-8.5-14.2c-5.7-5.7-12.9-8.9-20.3-9.7c0.8,7.4,4.1,14.6,9.7,20.3
			c5.4,5.4,12,8.5,19,9.6c0.4,0.1,0.8,0.1,1.3,0.2C374.8,433,374.4,430.9,373.8,428.9z"/>
		<path class="st1" d="M376.3,464.8c7-1,13.6-4.2,19-9.6c5.7-5.7,8.9-12.9,9.7-20.3c-7.4,0.8-14.6,4.1-20.3,9.7
			c-4.1,4.1-6.9,9-8.5,14.2c-0.6,2-1,4-1.3,6.1C375.4,465,375.8,464.9,376.3,464.8z"/>
		<path class="st1" d="M373.8,458.9c-1.6-5.2-4.4-10.1-8.5-14.2c-5.7-5.7-12.9-8.9-20.3-9.7c0.8,7.4,4.1,14.6,9.7,20.3
			c5.4,5.4,12,8.5,19,9.6c0.4,0.1,0.8,0.1,1.3,0.2C374.8,463,374.4,460.9,373.8,458.9z"/>
		<path class="st1" d="M376.3,494.8c7-1,13.6-4.2,19-9.6c5.7-5.7,8.9-12.9,9.7-20.3c-7.4,0.8-14.6,4.1-20.3,9.7
			c-4.1,4.1-6.9,9-8.5,14.2c-0.6,2-1,4-1.3,6.1C375.4,495,375.8,494.9,376.3,494.8z"/>
		<path class="st1" d="M376.3,524.8c7-1,13.6-4.2,19-9.6c5.7-5.7,8.9-12.9,9.7-20.3c-7.4,0.8-14.6,4.1-20.3,9.7
			c-4.1,4.1-6.9,9-8.5,14.2c-0.6,2-1,4-1.3,6.1C375.4,525,375.8,524.9,376.3,524.8z"/>
		<path class="st1" d="M373.8,518.9c-1.6-5.2-4.4-10.1-8.5-14.2c-5.7-5.7-12.9-8.9-20.3-9.7c0.8,7.4,4.1,14.6,9.7,20.3
			c5.4,5.3,12,8.5,19,9.6c0.4,0.1,0.8,0.1,1.3,0.2C374.8,523,374.4,520.9,373.8,518.9z"/>
		<path class="st1" d="M376.3,554.8c7-1,13.6-4.2,19-9.6c5.7-5.7,8.9-12.9,9.7-20.3c-7.4,0.8-14.6,4.1-20.3,9.7
			c-4.1,4.1-6.9,9-8.5,14.2c-0.6,2-1,4-1.3,6.1C375.4,555,375.8,554.9,376.3,554.8z"/>
		<path class="st1" d="M373.8,548.9c-1.6-5.2-4.4-10.1-8.5-14.2c-5.7-5.7-12.9-8.9-20.3-9.7c0.8,7.4,4.1,14.6,9.7,20.3
			c5.4,5.3,12,8.5,19,9.6c0.4,0.1,0.8,0.1,1.3,0.2C374.8,553,374.4,550.9,373.8,548.9z"/>
		<path class="st1" d="M373.8,578.9c-1.6-5.2-4.4-10.1-8.5-14.2c-5.7-5.7-12.9-8.9-20.3-9.7c0.8,7.4,4.1,14.6,9.7,20.3
			c5.4,5.3,12,8.5,19,9.6c0.4,0.1,0.8,0.1,1.3,0.2C374.8,583,374.4,580.9,373.8,578.9z"/>
		<path class="st1" d="M384.7,594.7c-1.6,1.6-3.1,3.4-4.3,5.3h19.1c3-4.6,4.9-9.7,5.4-15C397.6,585.8,390.4,589.1,384.7,594.7z"/>
		<path class="st1" d="M345,585c0.6,5.3,2.4,10.4,5.4,15h19.1c-1.2-1.9-2.7-3.6-4.3-5.3C359.6,589.1,352.4,585.8,345,585z"/>
		<path class="st1" d="M448.8,38.9c-1.6-5.2-4.4-10.1-8.5-14.2c-5.7-5.7-12.9-8.9-20.3-9.7c0.8,7.4,4.1,14.6,9.7,20.3
			c5.4,5.3,12,8.5,19,9.6c0.4,0.1,0.8,0.1,1.3,0.2C449.8,42.9,449.4,40.9,448.8,38.9z"/>
		<path class="st1" d="M451.3,74.8c7-1,13.6-4.2,19-9.6c5.7-5.7,8.9-12.9,9.7-20.3c-7.4,0.8-14.6,4.1-20.3,9.7
			c-4.1,4.1-6.9,9-8.5,14.2c-0.6,2-1,4-1.3,6.1C450.4,74.9,450.8,74.9,451.3,74.8z"/>
		<path class="st1" d="M448.8,68.9c-1.6-5.2-4.4-10.1-8.5-14.2c-5.7-5.7-12.9-8.9-20.3-9.7c0.8,7.4,4.1,14.6,9.7,20.3
			c5.4,5.4,12,8.5,19,9.6c0.4,0.1,0.8,0.1,1.3,0.2C449.8,72.9,449.4,70.9,448.8,68.9z"/>
		<path class="st1" d="M451.3,104.8c7-1,13.6-4.2,19-9.6c5.7-5.7,8.9-12.9,9.7-20.3c-7.4,0.8-14.6,4.1-20.3,9.7
			c-4.1,4.1-6.9,9-8.5,14.2c-0.6,2-1,4-1.3,6.1C450.4,104.9,450.8,104.9,451.3,104.8z"/>
		<path class="st1" d="M448.8,98.9c-1.6-5.2-4.4-10.1-8.5-14.2c-5.7-5.7-12.9-8.9-20.3-9.7c0.8,7.4,4.1,14.6,9.7,20.3
			c5.4,5.4,12,8.5,19,9.6c0.4,0.1,0.8,0.1,1.3,0.2C449.8,102.9,449.4,100.9,448.8,98.9z"/>
		<path class="st1" d="M451.3,134.8c7-1,13.6-4.2,19-9.6c5.7-5.7,8.9-12.9,9.7-20.3c-7.4,0.8-14.6,4.1-20.3,9.7
			c-4.1,4.1-6.9,9-8.5,14.2c-0.6,2-1,4-1.3,6.1C450.4,134.9,450.8,134.9,451.3,134.8z"/>
		<path class="st1" d="M448.8,128.9c-1.6-5.2-4.4-10.1-8.5-14.2c-5.7-5.7-12.9-8.9-20.3-9.7c0.8,7.4,4.1,14.6,9.7,20.3
			c5.4,5.4,12,8.5,19,9.6c0.4,0.1,0.8,0.1,1.3,0.2C449.8,132.9,449.4,130.9,448.8,128.9z"/>
		<path class="st1" d="M451.3,164.8c7-1,13.6-4.2,19-9.6c5.7-5.7,8.9-12.9,9.7-20.3c-7.4,0.8-14.6,4.1-20.3,9.7
			c-4.1,4.1-6.9,9-8.5,14.2c-0.6,2-1,4-1.3,6.1C450.4,164.9,450.8,164.9,451.3,164.8z"/>
		<path class="st1" d="M448.8,158.9c-1.6-5.2-4.4-10.1-8.5-14.2c-5.7-5.7-12.9-8.9-20.3-9.7c0.8,7.4,4.1,14.6,9.7,20.3
			c5.4,5.4,12,8.5,19,9.6c0.4,0.1,0.8,0.1,1.3,0.2C449.8,162.9,449.4,160.9,448.8,158.9z"/>
		<path class="st1" d="M451.3,194.8c7-1,13.6-4.2,19-9.6c5.7-5.7,8.9-12.9,9.7-20.3c-7.4,0.8-14.6,4.1-20.3,9.7
			c-4.1,4.1-6.9,9-8.5,14.2c-0.6,2-1,4-1.3,6.1C450.4,194.9,450.8,194.9,451.3,194.8z"/>
		<path class="st1" d="M448.8,188.9c-1.6-5.2-4.4-10.1-8.5-14.2c-5.7-5.7-12.9-8.9-20.3-9.7c0.8,7.4,4.1,14.6,9.7,20.3
			c5.4,5.4,12,8.5,19,9.6c0.4,0.1,0.8,0.1,1.3,0.2C449.8,192.9,449.4,190.9,448.8,188.9z"/>
		<path class="st1" d="M451.3,224.8c7-1,13.6-4.2,19-9.6c5.7-5.7,8.9-12.9,9.7-20.3c-7.4,0.8-14.6,4.1-20.3,9.7
			c-4.1,4.1-6.9,9-8.5,14.2c-0.6,2-1,4-1.3,6.1C450.4,224.9,450.8,224.9,451.3,224.8z"/>
		<path class="st1" d="M448.8,218.9c-1.6-5.2-4.4-10.1-8.5-14.2c-5.7-5.7-12.9-8.9-20.3-9.7c0.8,7.4,4.1,14.6,9.7,20.3
			c5.4,5.4,12,8.5,19,9.6c0.4,0.1,0.8,0.1,1.3,0.2C449.8,222.9,449.4,220.9,448.8,218.9z"/>
		<path class="st1" d="M448.8,248.9c-1.6-5.2-4.4-10.1-8.5-14.2c-5.7-5.7-12.9-8.9-20.3-9.7c0.8,7.4,4.1,14.6,9.7,20.3
			c5.4,5.4,12,8.5,19,9.6c0.4,0.1,0.8,0.1,1.3,0.2C449.8,252.9,449.4,250.9,448.8,248.9z"/>
		<path class="st1" d="M451.3,284.8c7-1,13.6-4.2,19-9.6c5.7-5.7,8.9-12.9,9.7-20.3c-7.4,0.8-14.6,4.1-20.3,9.7
			c-4.1,4.1-6.9,9-8.5,14.2c-0.6,2-1,4-1.3,6.1C450.4,285,450.8,284.9,451.3,284.8z"/>
		<path class="st1" d="M448.8,278.9c-1.6-5.2-4.4-10.1-8.5-14.2c-5.7-5.7-12.9-8.9-20.3-9.7c0.8,7.4,4.1,14.6,9.7,20.3
			c5.4,5.4,12,8.5,19,9.6c0.4,0.1,0.8,0.1,1.3,0.2C449.8,283,449.4,280.9,448.8,278.9z"/>
		<path class="st1" d="M451.3,314.8c7-1,13.6-4.2,19-9.6c5.7-5.7,8.9-12.9,9.7-20.3c-7.4,0.8-14.6,4.1-20.3,9.7
			c-4.1,4.1-6.9,9-8.5,14.2c-0.6,2-1,4-1.3,6.1C450.4,315,450.8,314.9,451.3,314.8z"/>
		<path class="st1" d="M448.8,308.9c-1.6-5.2-4.4-10.1-8.5-14.2c-5.7-5.7-12.9-8.9-20.3-9.7c0.8,7.4,4.1,14.6,9.7,20.3
			c5.4,5.4,12,8.5,19,9.6c0.4,0.1,0.8,0.1,1.3,0.2C449.8,313,449.4,310.9,448.8,308.9z"/>
		<path class="st1" d="M451.3,344.8c7-1,13.6-4.2,19-9.6c5.7-5.7,8.9-12.9,9.7-20.3c-7.4,0.8-14.6,4.1-20.3,9.7
			c-4.1,4.1-6.9,9-8.5,14.2c-0.6,2-1,4-1.3,6.1C450.4,345,450.8,344.9,451.3,344.8z"/>
		<path class="st1" d="M451.3,374.8c7-1,13.6-4.2,19-9.6c5.7-5.7,8.9-12.9,9.7-20.3c-7.4,0.8-14.6,4.1-20.3,9.7
			c-4.1,4.1-6.9,9-8.5,14.2c-0.6,2-1,4-1.3,6.1C450.4,375,450.8,374.9,451.3,374.8z"/>
		<path class="st1" d="M448.8,368.9c-1.6-5.2-4.4-10.1-8.5-14.2c-5.7-5.7-12.9-8.9-20.3-9.7c0.8,7.4,4.1,14.6,9.7,20.3
			c5.4,5.4,12,8.5,19,9.6c0.4,0.1,0.8,0.1,1.3,0.2C449.8,373,449.4,370.9,448.8,368.9z"/>
		<path class="st1" d="M451.3,404.8c7-1,13.6-4.2,19-9.6c5.7-5.7,8.9-12.9,9.7-20.3c-7.4,0.8-14.6,4.1-20.3,9.7
			c-4.1,4.1-6.9,9-8.5,14.2c-0.6,2-1,4-1.3,6.1C450.4,405,450.8,404.9,451.3,404.8z"/>
		<path class="st1" d="M448.8,398.9c-1.6-5.2-4.4-10.1-8.5-14.2c-5.7-5.7-12.9-8.9-20.3-9.7c0.8,7.4,4.1,14.6,9.7,20.3
			c5.4,5.4,12,8.5,19,9.6c0.4,0.1,0.8,0.1,1.3,0.2C449.8,403,449.4,400.9,448.8,398.9z"/>
		<path class="st1" d="M451.3,434.8c7-1,13.6-4.2,19-9.6c5.7-5.7,8.9-12.9,9.7-20.3c-7.4,0.8-14.6,4.1-20.3,9.7
			c-4.1,4.1-6.9,9-8.5,14.2c-0.6,2-1,4-1.3,6.1C450.4,435,450.8,434.9,451.3,434.8z"/>
		<path class="st1" d="M448.8,428.9c-1.6-5.2-4.4-10.1-8.5-14.2c-5.7-5.7-12.9-8.9-20.3-9.7c0.8,7.4,4.1,14.6,9.7,20.3
			c5.4,5.4,12,8.5,19,9.6c0.4,0.1,0.8,0.1,1.3,0.2C449.8,433,449.4,430.9,448.8,428.9z"/>
		<path class="st1" d="M451.3,464.8c7-1,13.6-4.2,19-9.6c5.7-5.7,8.9-12.9,9.7-20.3c-7.4,0.8-14.6,4.1-20.3,9.7
			c-4.1,4.1-6.9,9-8.5,14.2c-0.6,2-1,4-1.3,6.1C450.4,465,450.8,464.9,451.3,464.8z"/>
		<path class="st1" d="M448.8,458.9c-1.6-5.2-4.4-10.1-8.5-14.2c-5.7-5.7-12.9-8.9-20.3-9.7c0.8,7.4,4.1,14.6,9.7,20.3
			c5.4,5.4,12,8.5,19,9.6c0.4,0.1,0.8,0.1,1.3,0.2C449.8,463,449.4,460.9,448.8,458.9z"/>
		<path class="st1" d="M451.3,494.8c7-1,13.6-4.2,19-9.6c5.7-5.7,8.9-12.9,9.7-20.3c-7.4,0.8-14.6,4.1-20.3,9.7
			c-4.1,4.1-6.9,9-8.5,14.2c-0.6,2-1,4-1.3,6.1C450.4,495,450.8,494.9,451.3,494.8z"/>
		<path class="st1" d="M448.8,488.9c-1.6-5.2-4.4-10.1-8.5-14.2c-5.7-5.7-12.9-8.9-20.3-9.7c0.8,7.4,4.1,14.6,9.7,20.3
			c5.4,5.4,12,8.5,19,9.6c0.4,0.1,0.8,0.1,1.3,0.2C449.8,493,449.4,490.9,448.8,488.9z"/>
		<path class="st1" d="M451.3,524.8c7-1,13.6-4.2,19-9.6c5.7-5.7,8.9-12.9,9.7-20.3c-7.4,0.8-14.6,4.1-20.3,9.7
			c-4.1,4.1-6.9,9-8.5,14.2c-0.6,2-1,4-1.3,6.1C450.4,525,450.8,524.9,451.3,524.8z"/>
		<path class="st1" d="M448.8,518.9c-1.6-5.2-4.4-10.1-8.5-14.2c-5.7-5.7-12.9-8.9-20.3-9.7c0.8,7.4,4.1,14.6,9.7,20.3
			c5.4,5.3,12,8.5,19,9.6c0.4,0.1,0.8,0.1,1.3,0.2C449.8,523,449.4,520.9,448.8,518.9z"/>
		<path class="st1" d="M451.3,554.8c7-1,13.6-4.2,19-9.6c5.7-5.7,8.9-12.9,9.7-20.3c-7.4,0.8-14.6,4.1-20.3,9.7
			c-4.1,4.1-6.9,9-8.5,14.2c-0.6,2-1,4-1.3,6.1C450.4,555,450.8,554.9,451.3,554.8z"/>
		<path class="st1" d="M448.8,548.9c-1.6-5.2-4.4-10.1-8.5-14.2c-5.7-5.7-12.9-8.9-20.3-9.7c0.8,7.4,4.1,14.6,9.7,20.3
			c5.4,5.3,12,8.5,19,9.6c0.4,0.1,0.8,0.1,1.3,0.2C449.8,553,449.4,550.9,448.8,548.9z"/>
		<path class="st1" d="M451.3,584.8c7-1,13.6-4.2,19-9.6c5.7-5.7,8.9-12.9,9.7-20.3c-7.4,0.8-14.6,4.1-20.3,9.7
			c-4.1,4.1-6.9,9-8.5,14.2c-0.6,2-1,4-1.3,6.1C450.4,585,450.8,584.9,451.3,584.8z"/>
		<path class="st1" d="M448.8,578.9c-1.6-5.2-4.4-10.1-8.5-14.2c-5.7-5.7-12.9-8.9-20.3-9.7c0.8,7.4,4.1,14.6,9.7,20.3
			c5.4,5.3,12,8.5,19,9.6c0.4,0.1,0.8,0.1,1.3,0.2C449.8,583,449.4,580.9,448.8,578.9z"/>
		<path class="st1" d="M459.7,594.7c-1.6,1.6-3.1,3.4-4.3,5.3h19.1c3-4.6,4.9-9.7,5.4-15C472.6,585.8,465.4,589.1,459.7,594.7z"/>
		<path class="st1" d="M526.3,44.8c7-1,13.7-4.2,19-9.6c5.7-5.7,8.9-12.9,9.7-20.3c-7.4,0.8-14.6,4.1-20.3,9.7
			c-4.1,4.1-6.9,9-8.5,14.2c-0.6,2-1,4-1.3,6.1C525.4,44.9,525.8,44.9,526.3,44.8z"/>
		<path class="st1" d="M523.8,38.9c-1.6-5.2-4.4-10.1-8.5-14.2c-5.7-5.7-12.9-8.9-20.3-9.7c0.8,7.4,4.1,14.6,9.7,20.3
			c5.4,5.3,12,8.5,19,9.6c0.4,0.1,0.8,0.1,1.3,0.2C524.8,42.9,524.3,40.9,523.8,38.9z"/>
		<path class="st1" d="M526.3,74.8c7-1,13.7-4.2,19-9.6c5.7-5.7,8.9-12.9,9.7-20.3c-7.4,0.8-14.6,4.1-20.3,9.7
			c-4.1,4.1-6.9,9-8.5,14.2c-0.6,2-1,4-1.3,6.1C525.4,74.9,525.8,74.9,526.3,74.8z"/>
		<path class="st1" d="M523.8,68.9c-1.6-5.2-4.4-10.1-8.5-14.2c-5.7-5.7-12.9-8.9-20.3-9.7c0.8,7.4,4.1,14.6,9.7,20.3
			c5.4,5.4,12,8.5,19,9.6c0.4,0.1,0.8,0.1,1.3,0.2C524.8,72.9,524.3,70.9,523.8,68.9z"/>
		<path class="st1" d="M526.3,104.8c7-1,13.7-4.2,19-9.6c5.7-5.7,8.9-12.9,9.7-20.3c-7.4,0.8-14.6,4.1-20.3,9.7
			c-4.1,4.1-6.9,9-8.5,14.2c-0.6,2-1,4-1.3,6.1C525.4,104.9,525.8,104.9,526.3,104.8z"/>
		<path class="st1" d="M523.8,98.9c-1.6-5.2-4.4-10.1-8.5-14.2c-5.7-5.7-12.9-8.9-20.3-9.7c0.8,7.4,4.1,14.6,9.7,20.3
			c5.4,5.4,12,8.5,19,9.6c0.4,0.1,0.8,0.1,1.3,0.2C524.8,102.9,524.3,100.9,523.8,98.9z"/>
		<path class="st1" d="M526.3,134.8c7-1,13.7-4.2,19-9.6c5.7-5.7,8.9-12.9,9.7-20.3c-7.4,0.8-14.6,4.1-20.3,9.7
			c-4.1,4.1-6.9,9-8.5,14.2c-0.6,2-1,4-1.3,6.1C525.4,134.9,525.8,134.9,526.3,134.8z"/>
		<path class="st1" d="M523.8,128.9c-1.6-5.2-4.4-10.1-8.5-14.2c-5.7-5.7-12.9-8.9-20.3-9.7c0.8,7.4,4.1,14.6,9.7,20.3
			c5.4,5.4,12,8.5,19,9.6c0.4,0.1,0.8,0.1,1.3,0.2C524.8,132.9,524.3,130.9,523.8,128.9z"/>
		<path class="st1" d="M526.3,164.8c7-1,13.7-4.2,19-9.6c5.7-5.7,8.9-12.9,9.7-20.3c-7.4,0.8-14.6,4.1-20.3,9.7
			c-4.1,4.1-6.9,9-8.5,14.2c-0.6,2-1,4-1.3,6.1C525.4,164.9,525.8,164.9,526.3,164.8z"/>
		<path class="st1" d="M523.8,158.9c-1.6-5.2-4.4-10.1-8.5-14.2c-5.7-5.7-12.9-8.9-20.3-9.7c0.8,7.4,4.1,14.6,9.7,20.3
			c5.4,5.4,12,8.5,19,9.6c0.4,0.1,0.8,0.1,1.3,0.2C524.8,162.9,524.3,160.9,523.8,158.9z"/>
		<path class="st1" d="M526.3,194.8c7-1,13.7-4.2,19-9.6c5.7-5.7,8.9-12.9,9.7-20.3c-7.4,0.8-14.6,4.1-20.3,9.7
			c-4.1,4.1-6.9,9-8.5,14.2c-0.6,2-1,4-1.3,6.1C525.4,194.9,525.8,194.9,526.3,194.8z"/>
		<path class="st1" d="M523.8,188.9c-1.6-5.2-4.4-10.1-8.5-14.2c-5.7-5.7-12.9-8.9-20.3-9.7c0.8,7.4,4.1,14.6,9.7,20.3
			c5.4,5.4,12,8.5,19,9.6c0.4,0.1,0.8,0.1,1.3,0.2C524.8,192.9,524.3,190.9,523.8,188.9z"/>
		<path class="st1" d="M526.3,224.8c7-1,13.7-4.2,19-9.6c5.7-5.7,8.9-12.9,9.7-20.3c-7.4,0.8-14.6,4.1-20.3,9.7
			c-4.1,4.1-6.9,9-8.5,14.2c-0.6,2-1,4-1.3,6.1C525.4,224.9,525.8,224.9,526.3,224.8z"/>
		<path class="st1" d="M523.8,218.9c-1.6-5.2-4.4-10.1-8.5-14.2c-5.7-5.7-12.9-8.9-20.3-9.7c0.8,7.4,4.1,14.6,9.7,20.3
			c5.4,5.4,12,8.5,19,9.6c0.4,0.1,0.8,0.1,1.3,0.2C524.8,222.9,524.3,220.9,523.8,218.9z"/>
		<path class="st1" d="M526.3,254.8c7-1,13.7-4.2,19-9.6c5.7-5.7,8.9-12.9,9.7-20.3c-7.4,0.8-14.6,4.1-20.3,9.7
			c-4.1,4.1-6.9,9-8.5,14.2c-0.6,2-1,4-1.3,6.1C525.4,254.9,525.8,254.9,526.3,254.8z"/>
		<path class="st1" d="M523.8,248.9c-1.6-5.2-4.4-10.1-8.5-14.2c-5.7-5.7-12.9-8.9-20.3-9.7c0.8,7.4,4.1,14.6,9.7,20.3
			c5.4,5.4,12,8.5,19,9.6c0.4,0.1,0.8,0.1,1.3,0.2C524.8,252.9,524.3,250.9,523.8,248.9z"/>
		<path class="st1" d="M526.3,284.8c7-1,13.7-4.2,19-9.6c5.7-5.7,8.9-12.9,9.7-20.3c-7.4,0.8-14.6,4.1-20.3,9.7
			c-4.1,4.1-6.9,9-8.5,14.2c-0.6,2-1,4-1.3,6.1C525.4,285,525.8,284.9,526.3,284.8z"/>
		<path class="st1" d="M523.8,278.9c-1.6-5.2-4.4-10.1-8.5-14.2c-5.7-5.7-12.9-8.9-20.3-9.7c0.8,7.4,4.1,14.6,9.7,20.3
			c5.4,5.4,12,8.5,19,9.6c0.4,0.1,0.8,0.1,1.3,0.2C524.8,283,524.3,280.9,523.8,278.9z"/>
		<path class="st1" d="M526.3,314.8c7-1,13.7-4.2,19-9.6c5.7-5.7,8.9-12.9,9.7-20.3c-7.4,0.8-14.6,4.1-20.3,9.7
			c-4.1,4.1-6.9,9-8.5,14.2c-0.6,2-1,4-1.3,6.1C525.4,315,525.8,314.9,526.3,314.8z"/>
		<path class="st1" d="M526.3,344.8c7-1,13.7-4.2,19-9.6c5.7-5.7,8.9-12.9,9.7-20.3c-7.4,0.8-14.6,4.1-20.3,9.7
			c-4.1,4.1-6.9,9-8.5,14.2c-0.6,2-1,4-1.3,6.1C525.4,345,525.8,344.9,526.3,344.8z"/>
		<path class="st1" d="M523.8,338.9c-1.6-5.2-4.4-10.1-8.5-14.2c-5.7-5.7-12.9-8.9-20.3-9.7c0.8,7.4,4.1,14.6,9.7,20.3
			c5.4,5.4,12,8.5,19,9.6c0.4,0.1,0.8,0.1,1.3,0.2C524.8,343,524.3,340.9,523.8,338.9z"/>
		<path class="st1" d="M526.3,374.8c7-1,13.7-4.2,19-9.6c5.7-5.7,8.9-12.9,9.7-20.3c-7.4,0.8-14.6,4.1-20.3,9.7
			c-4.1,4.1-6.9,9-8.5,14.2c-0.6,2-1,4-1.3,6.1C525.4,375,525.8,374.9,526.3,374.8z"/>
		<path class="st1" d="M523.8,368.9c-1.6-5.2-4.4-10.1-8.5-14.2c-5.7-5.7-12.9-8.9-20.3-9.7c0.8,7.4,4.1,14.6,9.7,20.3
			c5.4,5.4,12,8.5,19,9.6c0.4,0.1,0.8,0.1,1.3,0.2C524.8,373,524.3,370.9,523.8,368.9z"/>
		<path class="st1" d="M526.3,404.8c7-1,13.7-4.2,19-9.6c5.7-5.7,8.9-12.9,9.7-20.3c-7.4,0.8-14.6,4.1-20.3,9.7
			c-4.1,4.1-6.9,9-8.5,14.2c-0.6,2-1,4-1.3,6.1C525.4,405,525.8,404.9,526.3,404.8z"/>
		<path class="st1" d="M523.8,398.9c-1.6-5.2-4.4-10.1-8.5-14.2c-5.7-5.7-12.9-8.9-20.3-9.7c0.8,7.4,4.1,14.6,9.7,20.3
			c5.4,5.4,12,8.5,19,9.6c0.4,0.1,0.8,0.1,1.3,0.2C524.8,403,524.3,400.9,523.8,398.9z"/>
		<path class="st1" d="M526.3,434.8c7-1,13.7-4.2,19-9.6c5.7-5.7,8.9-12.9,9.7-20.3c-7.4,0.8-14.6,4.1-20.3,9.7
			c-4.1,4.1-6.9,9-8.5,14.2c-0.6,2-1,4-1.3,6.1C525.4,435,525.8,434.9,526.3,434.8z"/>
		<path class="st1" d="M523.8,428.9c-1.6-5.2-4.4-10.1-8.5-14.2c-5.7-5.7-12.9-8.9-20.3-9.7c0.8,7.4,4.1,14.6,9.7,20.3
			c5.4,5.4,12,8.5,19,9.6c0.4,0.1,0.8,0.1,1.3,0.2C524.8,433,524.3,430.9,523.8,428.9z"/>
		<path class="st1" d="M523.8,458.9c-1.6-5.2-4.4-10.1-8.5-14.2c-5.7-5.7-12.9-8.9-20.3-9.7c0.8,7.4,4.1,14.6,9.7,20.3
			c5.4,5.4,12,8.5,19,9.6c0.4,0.1,0.8,0.1,1.3,0.2C524.8,463,524.3,460.9,523.8,458.9z"/>
		<path class="st1" d="M526.3,494.8c7-1,13.7-4.2,19-9.6c5.7-5.7,8.9-12.9,9.7-20.3c-7.4,0.8-14.6,4.1-20.3,9.7
			c-4.1,4.1-6.9,9-8.5,14.2c-0.6,2-1,4-1.3,6.1C525.4,495,525.8,494.9,526.3,494.8z"/>
		<path class="st1" d="M523.8,488.9c-1.6-5.2-4.4-10.1-8.5-14.2c-5.7-5.7-12.9-8.9-20.3-9.7c0.8,7.4,4.1,14.6,9.7,20.3
			c5.4,5.4,12,8.5,19,9.6c0.4,0.1,0.8,0.1,1.3,0.2C524.8,493,524.3,490.9,523.8,488.9z"/>
		<path class="st1" d="M526.3,524.8c7-1,13.7-4.2,19-9.6c5.7-5.7,8.9-12.9,9.7-20.3c-7.4,0.8-14.6,4.1-20.3,9.7
			c-4.1,4.1-6.9,9-8.5,14.2c-0.6,2-1,4-1.3,6.1C525.4,525,525.8,524.9,526.3,524.8z"/>
		<path class="st1" d="M523.8,518.9c-1.6-5.2-4.4-10.1-8.5-14.2c-5.7-5.7-12.9-8.9-20.3-9.7c0.8,7.4,4.1,14.6,9.7,20.3
			c5.4,5.3,12,8.5,19,9.6c0.4,0.1,0.8,0.1,1.3,0.2C524.8,523,524.3,520.9,523.8,518.9z"/>
		<path class="st1" d="M526.3,554.8c7-1,13.7-4.2,19-9.6c5.7-5.7,8.9-12.9,9.7-20.3c-7.4,0.8-14.6,4.1-20.3,9.7
			c-4.1,4.1-6.9,9-8.5,14.2c-0.6,2-1,4-1.3,6.1C525.4,555,525.8,554.9,526.3,554.8z"/>
		<path class="st1" d="M523.8,548.9c-1.6-5.2-4.4-10.1-8.5-14.2c-5.7-5.7-12.9-8.9-20.3-9.7c0.8,7.4,4.1,14.6,9.7,20.3
			c5.4,5.3,12,8.5,19,9.6c0.4,0.1,0.8,0.1,1.3,0.2C524.8,553,524.3,550.9,523.8,548.9z"/>
		<path class="st1" d="M526.3,584.8c7-1,13.7-4.2,19-9.6c5.7-5.7,8.9-12.9,9.7-20.3c-7.4,0.8-14.6,4.1-20.3,9.7
			c-4.1,4.1-6.9,9-8.5,14.2c-0.6,2-1,4-1.3,6.1C525.4,585,525.8,584.9,526.3,584.8z"/>
		<path class="st1" d="M523.8,578.9c-1.6-5.2-4.4-10.1-8.5-14.2c-5.7-5.7-12.9-8.9-20.3-9.7c0.8,7.4,4.1,14.6,9.7,20.3
			c5.4,5.3,12,8.5,19,9.6c0.4,0.1,0.8,0.1,1.3,0.2C524.8,583,524.3,580.9,523.8,578.9z"/>
		<path class="st1" d="M534.7,594.7c-1.6,1.6-3.1,3.4-4.3,5.3h19.1c3-4.6,4.9-9.7,5.4-15C547.6,585.8,540.4,589.1,534.7,594.7z"/>
		<path class="st1" d="M495,585c0.6,5.3,2.4,10.4,5.4,15h19.1c-1.2-1.9-2.7-3.6-4.3-5.3C509.6,589.1,502.4,585.8,495,585z"/>
		<path class="st1" d="M590.3,24.7c-5.7-5.7-12.9-8.9-20.3-9.7c0.8,7.4,4.1,14.6,9.7,20.3c5.4,5.3,12,8.5,19,9.6
			c0.4,0.1,0.8,0.1,1.3,0.2c-0.2-2-0.7-4.1-1.3-6.1C597.2,33.7,594.4,28.8,590.3,24.7z"/>
		<path class="st1" d="M590.3,84.7c-5.7-5.7-12.9-8.9-20.3-9.7c0.8,7.4,4.1,14.6,9.7,20.3c5.4,5.4,12,8.5,19,9.6
			c0.4,0.1,0.8,0.1,1.3,0.2c-0.2-2.1-0.7-4.1-1.3-6.1C597.2,93.7,594.4,88.8,590.3,84.7z"/>
		<path class="st1" d="M590.3,114.7c-5.7-5.7-12.9-8.9-20.3-9.7c0.8,7.4,4.1,14.6,9.7,20.3c5.4,5.4,12,8.5,19,9.6
			c0.4,0.1,0.8,0.1,1.3,0.2c-0.2-2.1-0.7-4.1-1.3-6.1C597.2,123.7,594.4,118.8,590.3,114.7z"/>
		<path class="st1" d="M590.3,144.7c-5.7-5.7-12.9-8.9-20.3-9.7c0.8,7.4,4.1,14.6,9.7,20.3c5.4,5.4,12,8.5,19,9.6
			c0.4,0.1,0.8,0.1,1.3,0.2c-0.2-2.1-0.7-4.1-1.3-6.1C597.2,153.7,594.4,148.8,590.3,144.7z"/>
		<path class="st1" d="M590.3,174.7c-5.7-5.7-12.9-8.9-20.3-9.7c0.8,7.4,4.1,14.6,9.7,20.3c5.4,5.4,12,8.5,19,9.6
			c0.4,0.1,0.8,0.1,1.3,0.2c-0.2-2.1-0.7-4.1-1.3-6.1C597.2,183.7,594.4,178.8,590.3,174.7z"/>
		<path class="st1" d="M590.3,204.7c-5.7-5.7-12.9-8.9-20.3-9.7c0.8,7.4,4.1,14.6,9.7,20.3c5.4,5.4,12,8.5,19,9.6
			c0.4,0.1,0.8,0.1,1.3,0.2c-0.2-2.1-0.7-4.1-1.3-6.1C597.2,213.7,594.4,208.8,590.3,204.7z"/>
		<path class="st1" d="M590.3,234.7c-5.7-5.7-12.9-8.9-20.3-9.7c0.8,7.4,4.1,14.6,9.7,20.3c5.4,5.4,12,8.5,19,9.6
			c0.4,0.1,0.8,0.1,1.3,0.2c-0.2-2.1-0.7-4.1-1.3-6.1C597.2,243.7,594.4,238.8,590.3,234.7z"/>
		<path class="st1" d="M590.3,264.7c-5.7-5.7-12.9-8.9-20.3-9.7c0.8,7.4,4.1,14.6,9.7,20.3c5.4,5.4,12,8.5,19,9.6
			c0.4,0.1,0.8,0.1,1.3,0.2c-0.2-2-0.7-4.1-1.3-6.1C597.2,273.7,594.4,268.8,590.3,264.7z"/>
		<path class="st1" d="M590.3,294.7c-5.7-5.7-12.9-8.9-20.3-9.7c0.8,7.4,4.1,14.6,9.7,20.3c5.4,5.4,12,8.5,19,9.6
			c0.4,0.1,0.8,0.1,1.3,0.2c-0.2-2-0.7-4.1-1.3-6.1C597.2,303.7,594.4,298.8,590.3,294.7z"/>
		<path class="st1" d="M590.3,324.7c-5.7-5.7-12.9-8.9-20.3-9.7c0.8,7.4,4.1,14.6,9.7,20.3c5.4,5.4,12,8.5,19,9.6
			c0.4,0.1,0.8,0.1,1.3,0.2c-0.2-2-0.7-4.1-1.3-6.1C597.2,333.7,594.4,328.8,590.3,324.7z"/>
		<path class="st1" d="M590.3,354.7c-5.7-5.7-12.9-8.9-20.3-9.7c0.8,7.4,4.1,14.6,9.7,20.3c5.4,5.4,12,8.5,19,9.6
			c0.4,0.1,0.8,0.1,1.3,0.2c-0.2-2-0.7-4.1-1.3-6.1C597.2,363.7,594.4,358.8,590.3,354.7z"/>
		<path class="st1" d="M590.3,384.7c-5.7-5.7-12.9-8.9-20.3-9.7c0.8,7.4,4.1,14.6,9.7,20.3c5.4,5.4,12,8.5,19,9.6
			c0.4,0.1,0.8,0.1,1.3,0.2c-0.2-2-0.7-4.1-1.3-6.1C597.2,393.7,594.4,388.8,590.3,384.7z"/>
		<path class="st1" d="M590.3,414.7c-5.7-5.7-12.9-8.9-20.3-9.7c0.8,7.4,4.1,14.6,9.7,20.3c5.4,5.4,12,8.5,19,9.6
			c0.4,0.1,0.8,0.1,1.3,0.2c-0.2-2-0.7-4.1-1.3-6.1C597.2,423.7,594.4,418.8,590.3,414.7z"/>
		<path class="st1" d="M590.3,444.7c-5.7-5.7-12.9-8.9-20.3-9.7c0.8,7.4,4.1,14.6,9.7,20.3c5.4,5.4,12,8.5,19,9.6
			c0.4,0.1,0.8,0.1,1.3,0.2c-0.2-2-0.7-4.1-1.3-6.1C597.2,453.7,594.4,448.8,590.3,444.7z"/>
		<path class="st1" d="M590.3,474.7c-5.7-5.7-12.9-8.9-20.3-9.7c0.8,7.4,4.1,14.6,9.7,20.3c5.4,5.4,12,8.5,19,9.6
			c0.4,0.1,0.8,0.1,1.3,0.2c-0.2-2-0.7-4.1-1.3-6.1C597.2,483.7,594.4,478.8,590.3,474.7z"/>
		<path class="st1" d="M590.3,504.7c-5.7-5.7-12.9-8.9-20.3-9.7c0.8,7.4,4.1,14.6,9.7,20.3c5.4,5.3,12,8.5,19,9.6
			c0.4,0.1,0.8,0.1,1.3,0.2c-0.2-2-0.7-4.1-1.3-6.1C597.2,513.7,594.4,508.8,590.3,504.7z"/>
		<path class="st1" d="M590.3,534.7c-5.7-5.7-12.9-8.9-20.3-9.7c0.8,7.4,4.1,14.6,9.7,20.3c5.4,5.3,12,8.5,19,9.6
			c0.4,0.1,0.8,0.1,1.3,0.2c-0.2-2-0.7-4.1-1.3-6.1C597.2,543.7,594.4,538.8,590.3,534.7z"/>
		<path class="st1" d="M590.3,564.7c-5.7-5.7-12.9-8.9-20.3-9.7c0.8,7.4,4.1,14.6,9.7,20.3c5.4,5.3,12,8.5,19,9.6
			c0.4,0.1,0.8,0.1,1.3,0.2c-0.2-2-0.7-4.1-1.3-6.1C597.2,573.7,594.4,568.8,590.3,564.7z"/>
		<path class="st1" d="M570,585c0.6,5.3,2.4,10.4,5.4,15h19.1c-1.2-1.9-2.7-3.6-4.3-5.3C584.6,589.1,577.4,585.8,570,585z"/>
		<path class="st1" d="M0,15c0.4-0.1,0.8-0.1,1.3-0.2c7-1,13.6-4.2,19-9.6c1.6-1.6,3.1-3.4,4.3-5.3H5.4C3.6,2.8,2.2,5.8,1.3,8.9
			C0.6,10.9,0.2,12.9,0,15z"/>
		<path class="st1" d="M75,15c0.4-0.1,0.8-0.1,1.3-0.2c7-1,13.7-4.2,19-9.6c1.6-1.6,3.1-3.4,4.3-5.3H80.4c-1.9,2.8-3.3,5.8-4.2,8.9
			C75.7,10.9,75.2,12.9,75,15z"/>
		<path class="st1" d="M73.8,14.8c0.4,0.1,0.8,0.1,1.3,0.2c-0.2-2.1-0.7-4.1-1.3-6.1c-0.9-3.1-2.3-6.1-4.2-8.9H50.4
			c1.2,1.9,2.7,3.6,4.3,5.3C60.1,10.6,66.8,13.8,73.8,14.8z"/>
		<path class="st1" d="M150,15c0.4-0.1,0.8-0.1,1.3-0.2c7-1,13.6-4.2,19-9.6c1.6-1.6,3.1-3.4,4.3-5.3h-19.1
			c-1.9,2.8-3.3,5.8-4.2,8.9C150.6,10.9,150.2,12.9,150,15z"/>
		<path class="st2" d="M148.8,14.8c0.4,0.1,0.8,0.1,1.3,0.2c-0.2-2.1-0.6-4.1-1.3-6.1c-0.9-3.1-2.3-6.1-4.2-8.9h-19.1
			c1.2,1.9,2.7,3.6,4.3,5.3C135.1,10.6,141.8,13.8,148.8,14.8z"/>
		<path class="st1" d="M225,15c0.4-0.1,0.8-0.1,1.3-0.2c7-1,13.6-4.2,19-9.6c1.6-1.6,3.1-3.4,4.3-5.3h-19.1
			c-1.9,2.8-3.3,5.8-4.2,8.9C225.6,10.9,225.2,12.9,225,15z"/>
		<path class="st1" d="M223.8,14.8c0.4,0.1,0.8,0.1,1.3,0.2c-0.2-2.1-0.6-4.1-1.3-6.1c-0.9-3.1-2.3-6.1-4.2-8.9h-19.1
			c1.2,1.9,2.7,3.6,4.3,5.3C210.1,10.6,216.8,13.8,223.8,14.8z"/>
		<path class="st1" d="M300,15c0.4-0.1,0.8-0.1,1.3-0.2c7-1,13.6-4.2,19-9.6c1.6-1.6,3.1-3.4,4.3-5.3h-19.1
			c-1.9,2.8-3.3,5.8-4.2,8.9C300.6,10.9,300.2,12.9,300,15z"/>
		<path class="st1" d="M298.8,14.8c0.4,0.1,0.8,0.1,1.3,0.2c-0.2-2.1-0.6-4.1-1.3-6.1c-0.9-3.1-2.3-6.1-4.2-8.9h-19.1
			c1.2,1.9,2.7,3.6,4.3,5.3C285.1,10.6,291.8,13.8,298.8,14.8z"/>
		<path class="st1" d="M375,15c0.4-0.1,0.8-0.1,1.3-0.2c7-1,13.6-4.2,19-9.6c1.6-1.6,3.1-3.4,4.3-5.3h-19.1
			c-1.9,2.8-3.3,5.8-4.2,8.9C375.6,10.9,375.2,12.9,375,15z"/>
		<path class="st1" d="M373.8,14.8c0.4,0.1,0.8,0.1,1.3,0.2c-0.2-2.1-0.6-4.1-1.3-6.1c-0.9-3.1-2.3-6.1-4.2-8.9h-19.1
			c1.2,1.9,2.7,3.6,4.3,5.3C360.1,10.6,366.8,13.8,373.8,14.8z"/>
		<path class="st1" d="M450,15c0.4-0.1,0.8-0.1,1.3-0.2c7-1,13.6-4.2,19-9.6c1.6-1.6,3.1-3.4,4.3-5.3h-19.1
			c-1.9,2.8-3.3,5.8-4.2,8.9C450.6,10.9,450.2,12.9,450,15z"/>
		<path class="st1" d="M525,15c0.4-0.1,0.8-0.1,1.3-0.2c7-1,13.7-4.2,19-9.6c1.6-1.6,3.1-3.4,4.3-5.3h-19.1
			c-1.9,2.8-3.3,5.8-4.2,8.9C525.7,10.9,525.2,12.9,525,15z"/>
		<path class="st1" d="M523.8,14.8c0.4,0.1,0.8,0.1,1.3,0.2c-0.2-2.1-0.7-4.1-1.3-6.1c-0.9-3.1-2.3-6.1-4.2-8.9h-19.1
			c1.2,1.9,2.7,3.6,4.3,5.3C510.1,10.6,516.8,13.8,523.8,14.8z"/>
		<path class="st1" d="M598.8,14.8c0.4,0.1,0.8,0.1,1.3,0.2c-0.2-2.1-0.7-4.1-1.3-6.1c-0.9-3.1-2.3-6.1-4.2-8.9h-19.1
			c1.2,1.9,2.7,3.6,4.3,5.3C585.1,10.6,591.8,13.8,598.8,14.8z"/>
	</g>
</g>
<g id="Ñëîé_4">
</g>
</svg>
